<svg width="72" height="62" viewBox="0 0 72 62" fill="none" xmlns="http://www.w3.org/2000/svg">
<path id="Vector" d="M33.3644 9.07769V39.3771C33.3644 42.3612 32.7822 45.2089 31.618 47.9204C30.4538 50.6318 28.8799 52.9774 26.8963 54.9572C24.9128 56.937 22.5628 58.5079 19.8462 59.67C17.1296 60.8321 14.2765 61.4131 11.2868 61.4131H8.52713C7.77971 61.4131 7.13291 61.1405 6.58672 60.5953C6.04053 60.0502 5.76743 59.4046 5.76743 58.6586V53.1496C5.76743 52.4036 6.04053 51.758 6.58672 51.2128C7.13291 50.6677 7.77971 50.3951 8.52713 50.3951H11.2868C14.334 50.3951 16.9356 49.3191 19.0916 47.1672C21.2476 45.0152 22.3256 42.4185 22.3256 39.3771V37.9999C22.3256 36.8522 21.9231 35.8766 21.1182 35.0732C20.3133 34.2698 19.3359 33.8681 18.1861 33.8681H8.52713C6.22738 33.8681 4.2726 33.0647 2.66278 31.458C1.05296 29.8512 0.248047 27.9001 0.248047 25.6047V9.07769C0.248047 6.78228 1.05296 4.83118 2.66278 3.22439C4.2726 1.6176 6.22738 0.814209 8.52713 0.814209H25.0853C27.385 0.814209 29.3398 1.6176 30.9496 3.22439C32.5595 4.83118 33.3644 6.78228 33.3644 9.07769ZM72.0001 9.07769V39.3771C72.0001 42.3612 71.418 45.2089 70.2537 47.9204C69.0895 50.6318 67.5156 52.9774 65.532 54.9572C63.5485 56.937 61.1985 58.5079 58.4819 59.67C55.7653 60.8321 52.9122 61.4131 49.9225 61.4131H47.1628C46.4154 61.4131 45.7686 61.1405 45.2224 60.5953C44.6762 60.0502 44.4031 59.4046 44.4031 58.6586V53.1496C44.4031 52.4036 44.6762 51.758 45.2224 51.2128C45.7686 50.6677 46.4154 50.3951 47.1628 50.3951H49.9225C52.9697 50.3951 55.5713 49.3191 57.7273 47.1672C59.8833 45.0152 60.9613 42.4185 60.9613 39.3771V37.9999C60.9613 36.8522 60.5588 35.8766 59.7539 35.0732C58.949 34.2698 57.9716 33.8681 56.8218 33.8681H47.1628C44.8631 33.8681 42.9083 33.0647 41.2985 31.458C39.6887 29.8512 38.8838 27.9001 38.8838 25.6047V9.07769C38.8838 6.78228 39.6887 4.83118 41.2985 3.22439C42.9083 1.6176 44.8631 0.814209 47.1628 0.814209H63.721C66.0207 0.814209 67.9755 1.6176 69.5854 3.22439C71.1952 4.83118 72.0001 6.78228 72.0001 9.07769Z" fill="#6CA9BE"/>
</svg>
