<svg width="72" height="61" viewBox="0 0 72 61" fill="none" xmlns="http://www.w3.org/2000/svg">
<path id="Vector" d="M33.1163 36.1758V52.6013C33.1163 54.8827 32.3114 56.8218 30.7016 58.4187C29.0918 60.0157 27.137 60.8141 24.8372 60.8141H8.27908C5.97934 60.8141 4.02455 60.0157 2.41473 58.4187C0.804911 56.8218 0 54.8827 0 52.6013V22.4878C0 19.5221 0.582123 16.6918 1.74637 13.997C2.91061 11.3022 4.4845 8.97092 6.46803 7.00327C8.45156 5.03563 10.8016 3.47434 13.5182 2.31942C16.2348 1.1645 19.0879 0.587036 22.0775 0.587036H24.8372C25.5847 0.587036 26.2315 0.857944 26.7777 1.39976C27.3238 1.94158 27.5969 2.5832 27.5969 3.32463V8.79982C27.5969 9.54125 27.3238 10.1829 26.7777 10.7247C26.2315 11.2665 25.5847 11.5374 24.8372 11.5374H22.0775C19.0304 11.5374 16.4288 12.6068 14.2728 14.7455C12.1168 16.8843 11.0388 19.465 11.0388 22.4878V23.8566C11.0388 24.9973 11.4412 25.9668 12.2461 26.7653C13.0511 27.5638 14.0284 27.963 15.1783 27.963H24.8372C27.137 27.963 29.0918 28.7615 30.7016 30.3584C32.3114 31.9553 33.1163 33.8944 33.1163 36.1758ZM71.752 36.1758V52.6013C71.752 54.8827 70.9471 56.8218 69.3373 58.4187C67.7275 60.0157 65.7727 60.8141 63.4729 60.8141H46.9148C44.615 60.8141 42.6603 60.0157 41.0504 58.4187C39.4406 56.8218 38.6357 54.8827 38.6357 52.6013V22.4878C38.6357 19.5221 39.2178 16.6918 40.3821 13.997C41.5463 11.3022 43.1202 8.97092 45.1037 7.00327C47.0873 5.03563 49.4373 3.47434 52.1539 2.31942C54.8705 1.1645 57.7236 0.587036 60.7133 0.587036H63.4729C64.2204 0.587036 64.8672 0.857944 65.4134 1.39976C65.9595 1.94158 66.2326 2.5832 66.2326 3.32463V8.79982C66.2326 9.54125 65.9595 10.1829 65.4134 10.7247C64.8672 11.2665 64.2204 11.5374 63.4729 11.5374H60.7133C57.6661 11.5374 55.0645 12.6068 52.9085 14.7455C50.7525 16.8843 49.6745 19.465 49.6745 22.4878V23.8566C49.6745 24.9973 50.0769 25.9668 50.8818 26.7653C51.6868 27.5638 52.6641 27.963 53.814 27.963H63.4729C65.7727 27.963 67.7275 28.7615 69.3373 30.3584C70.9471 31.9553 71.752 33.8944 71.752 36.1758Z" fill="#6CA9BE"/>
</svg>
