<svg xmlns="http://www.w3.org/2000/svg" width="512" height="512" viewBox="0 0 512 512" version="1.1">
	<path d="M 234 28.648 C 203.075 33.293, 170.475 50.176, 140.138 77.259 C 101.608 111.655, 85.444 158.172, 98.181 198 C 103.106 213.400, 116.442 236.241, 123.646 241.614 C 128.580 245.293, 128.527 245.204, 134.533 260.074 C 137.327 266.990, 141.804 275.990, 144.482 280.074 C 150.450 289.174, 165.319 304.135, 173.741 309.514 C 177.174 311.706, 179.986 313.768, 179.991 314.095 C 180.012 315.535, 163.827 335.935, 159.383 340.070 C 153.155 345.864, 148.419 348.608, 133.500 355.065 C 126.900 357.922, 118.647 362.338, 115.161 364.880 C 103.105 373.667, 98.458 376.416, 88.500 380.653 C 74.987 386.402, 72 388.860, 72 394.227 C 72 396.505, 72.913 400.254, 74.028 402.558 C 76.007 406.646, 76.207 406.765, 82.199 407.443 C 90.312 408.361, 97.127 411.044, 102.474 415.425 C 106.771 418.946, 106.974 419, 115.984 419 C 121.015 419, 125.983 418.545, 127.023 417.988 C 128.067 417.429, 129.217 415.362, 129.590 413.374 L 130.265 409.772 135.883 410.387 C 148.269 411.743, 175.784 413.976, 180.250 413.988 C 182.863 413.994, 185 414.418, 185 414.928 C 185 416.075, 178.586 416.749, 160.580 417.493 C 146.188 418.087, 142.210 418.700, 130.750 422.089 C 122.238 424.606, 121.928 426.443, 129.750 428.010 C 132.912 428.643, 138.200 429.877, 141.500 430.751 C 145.097 431.704, 153.908 432.573, 163.500 432.920 L 179.500 433.500 172.335 435.500 C 168.394 436.600, 165.116 437.941, 165.052 438.481 C 164.987 439.020, 168.490 439.970, 172.836 440.591 C 181.770 441.867, 181.022 441.525, 190.697 448.772 C 198.293 454.461, 205.575 457.443, 219.331 460.498 C 228.594 462.555, 230.045 461.856, 226.744 456.929 C 224.926 454.216, 222.678 452.814, 215.973 450.214 C 204.220 445.657, 199 443.177, 199 442.152 C 199 441.672, 201.812 439.445, 205.250 437.203 C 208.688 434.962, 212.400 431.750, 213.500 430.067 C 216.221 425.902, 217 426.210, 217 431.451 L 217 435.902 223.750 439.623 C 237.250 447.064, 240.876 449.892, 241.970 453.831 C 242.530 455.849, 242.991 459.118, 242.994 461.095 C 242.998 463.248, 243.702 465.320, 244.750 466.260 C 247.030 468.306, 268.859 479, 270.755 479 C 273.927 479, 267.871 470.091, 248.897 446.845 C 241.110 437.305, 232.380 425.900, 229.497 421.500 C 224.397 413.717, 212.419 392, 213.226 392 C 213.447 392, 215.812 394.890, 218.480 398.423 C 223.953 405.669, 228.071 408.054, 235.575 408.323 C 239.951 408.480, 240.535 408.255, 240.813 406.302 C 241.058 404.582, 240.189 403.628, 236.813 401.911 C 230.865 398.885, 222.395 392.236, 213.613 383.698 C 206.219 376.511, 206.203 376.483, 202.597 365 C 198.285 351.268, 196.041 341.082, 196.017 335.139 L 196 330.779 204.337 339.248 C 212.551 347.592, 221.588 354.755, 241.750 368.899 C 247.387 372.854, 252 376.438, 252 376.863 C 252 377.287, 249.750 382.661, 247 388.804 C 244.250 394.947, 242 400.830, 242 401.877 C 242 404.039, 250.467 416, 251.998 416 C 253.322 416, 253.291 415.598, 251.393 408 C 249.443 400.194, 250.319 396.995, 255.225 394.004 C 259.285 391.529, 262.320 391.508, 267.632 393.920 C 271.684 395.760, 276.935 401.972, 278.402 406.660 C 278.773 407.848, 279.807 409.423, 280.700 410.160 C 282.177 411.381, 282.262 410.912, 281.647 404.884 C 280.884 397.410, 281.554 396.255, 287.161 395.385 C 290.227 394.909, 290.787 395.260, 294.010 399.683 C 296.731 403.418, 298.226 404.569, 300.663 404.806 C 303.771 405.109, 303.796 405.156, 302.830 408.806 C 302.292 410.838, 298.040 423.943, 293.380 437.930 C 288.721 451.916, 285.041 464.291, 285.204 465.430 C 285.765 469.354, 289.270 468.420, 292.341 463.529 C 297.096 455.953, 306.111 448.693, 318.581 442.395 C 329.164 437.050, 330 436.416, 330 433.745 L 330 430.864 333 433 C 334.650 434.175, 336 435.878, 336 436.784 C 336 437.690, 333.890 440.574, 331.310 443.193 C 328.731 445.811, 326.894 448.227, 327.228 448.561 C 327.838 449.171, 343.337 447.526, 348 446.355 C 351.813 445.398, 349.171 447.764, 342.320 451.442 C 333.425 456.217, 333.989 457.312, 345.126 456.894 C 350.282 456.701, 358.934 456.927, 364.354 457.398 C 372.215 458.080, 375.351 457.939, 379.854 456.697 C 382.959 455.842, 390.209 454.653, 395.965 454.056 C 412.178 452.374, 416.219 449.643, 418.926 438.536 C 420.012 434.083, 419.952 433.438, 418.344 432.262 C 417.359 431.542, 414.853 430.680, 412.776 430.348 C 406.502 429.345, 407.847 427.956, 416.500 426.503 C 423.177 425.381, 423.993 423.985, 424.047 413.595 L 424.093 404.500 426.516 409.152 C 427.848 411.710, 429.842 417.062, 430.945 421.044 C 432.049 425.027, 433.224 428.558, 433.558 428.891 C 434.587 429.920, 436.836 426.003, 439.070 419.290 C 440.935 413.685, 441.057 412.284, 440.035 408.224 C 435.793 391.377, 420.487 373, 410.697 373 C 409.386 373, 402.506 370.010, 395.407 366.355 C 388.308 362.700, 374.625 356.143, 365 351.785 C 355.375 347.427, 345.351 342.488, 342.725 340.810 C 337.332 337.364, 328.272 327.777, 325.440 322.518 C 323.776 319.429, 323.712 318.635, 324.888 315.759 C 325.621 313.967, 326.775 309.800, 327.452 306.500 C 328.130 303.200, 330.095 297.297, 331.820 293.381 C 337.613 280.235, 338.260 276.361, 338.152 255.500 L 338.053 236.500 345.161 232 C 354.838 225.875, 369.920 211.399, 375.826 202.568 C 381.363 194.289, 386.170 183.362, 389.196 172.175 C 390.808 166.216, 391.288 161.371, 391.343 150.500 C 391.405 138.320, 391.071 135.254, 388.774 126.914 C 387.322 121.642, 384.345 113.453, 382.157 108.717 C 377.630 98.920, 367.283 84, 365.015 84 C 363.906 84, 363.452 82.760, 363.321 79.371 C 363.146 74.836, 361.006 70.399, 360.995 74.550 C 360.992 75.623, 359.939 77.814, 358.654 79.419 L 356.318 82.339 355.678 77.666 C 354.779 71.105, 352.160 66.502, 345.061 59 C 340.438 54.114, 339.084 53.121, 339.610 55 C 342.650 65.872, 341.987 67.364, 335.512 64.218 C 332.986 62.991, 324.396 57.937, 316.424 52.987 C 285.299 33.661, 269.359 27.917, 247.500 28.154 C 241.450 28.219, 235.375 28.441, 234 28.648 M 231.238 41.110 C 202.812 45.846, 150.424 82.794, 125.648 115.580 C 111.175 134.732, 107.475 149.668, 111.421 173 C 112.845 181.419, 112.890 181.317, 114.939 165 C 115.670 159.182, 116.643 155.711, 118.023 154 C 119.132 152.625, 120.963 149.475, 122.091 147.001 C 124.812 141.033, 128.732 136, 130.658 136 C 131.750 136, 131.997 136.522, 131.488 137.750 C 131.089 138.713, 130.579 142.875, 130.354 147 L 129.946 154.500 133.008 148.500 C 135.167 144.269, 137.842 141.065, 142.082 137.631 C 145.389 134.953, 148.364 133.031, 148.694 133.360 C 149.023 133.690, 148.068 135.810, 146.571 138.071 C 145.075 140.333, 144.090 142.424, 144.384 142.717 C 144.973 143.306, 149.234 141.230, 158.860 135.662 C 165.116 132.045, 165.211 132.024, 164.607 134.429 L 163.993 136.875 170.390 135.101 C 177.735 133.065, 186.719 127.060, 197.166 117.204 C 200.951 113.634, 204.325 110.992, 204.665 111.331 C 205.752 112.418, 196.705 123.176, 190.500 128.173 C 184.475 133.026, 166.161 143, 163.275 143 C 160.130 143, 154 145.357, 154 146.567 C 154 147.255, 151.075 150.116, 147.500 152.926 C 143.925 155.735, 141 158.294, 141 158.612 C 141 159.272, 148.564 154.995, 154.500 150.977 C 156.700 149.489, 161.200 147.499, 164.500 146.556 C 172.657 144.225, 187.215 136.455, 196.448 129.507 C 214.170 116.169, 227.925 93.343, 227.979 77.183 C 227.999 71.101, 228.084 70.891, 230.250 71.543 C 233.631 72.561, 239.008 77.991, 241.100 82.500 C 245.416 91.802, 242.029 113.337, 233.550 130.500 L 229.104 139.500 232.605 135.500 C 248.943 116.832, 260.651 85.732, 255.972 73.426 C 253.127 65.943, 260.680 72.649, 264.333 80.849 C 265.717 83.957, 267.395 90.279, 268.062 94.899 C 270.247 110.042, 267.952 122.864, 260.216 138.750 C 258.541 142.188, 257.429 145, 257.743 145 C 259.609 145, 269.969 135.594, 275.021 129.313 C 291.722 108.553, 295.970 82.543, 285.888 62.780 C 282.986 57.093, 285.452 58.014, 292.520 65.258 C 301.074 74.025, 304.231 81.002, 304.809 92.424 C 305.239 100.911, 305.332 101.214, 306.699 98.605 C 307.489 97.096, 308.443 93.086, 308.818 89.694 C 309.342 84.952, 309.904 83.448, 311.247 83.190 C 314.067 82.648, 315.256 87.460, 314.658 97 L 314.125 105.500 316.371 98.775 C 319.004 90.892, 319.450 90.298, 321.476 91.980 C 324.689 94.647, 322.209 113.362, 317.048 125.392 C 314.991 130.187, 314.921 131.785, 316.819 130.612 C 317.343 130.288, 319.846 126.981, 322.381 123.262 C 327.529 115.712, 331 106.907, 331 101.403 C 331 98.122, 331.167 97.893, 332.655 99.128 C 334.795 100.902, 337 106.209, 337 109.584 C 337 111.052, 338.613 114.429, 340.620 117.163 C 342.610 119.875, 344.041 122.293, 343.798 122.536 C 343.555 122.779, 341.251 121.642, 338.678 120.011 C 336.105 118.379, 334 117.403, 334 117.842 C 334 118.281, 335.572 120.476, 337.492 122.720 C 340.850 126.643, 340.928 126.910, 339.499 129.650 C 338.681 131.218, 338.026 133.625, 338.042 135 L 338.072 137.500 340.324 134.750 C 344.796 129.287, 345.919 131.659, 343.938 142.379 C 343.353 145.540, 343.037 148.612, 343.235 149.206 C 343.433 149.799, 345.374 147.525, 347.548 144.152 C 349.721 140.779, 351.950 138.163, 352.500 138.340 C 353.050 138.516, 353.725 143.326, 354 149.029 L 354.500 159.397 357.230 156.146 C 358.731 154.358, 360.359 152.180, 360.848 151.307 C 362.532 148.298, 364 151.080, 364.015 157.309 C 364.039 166.874, 365.673 167.671, 366.529 158.535 C 367.233 151.025, 366.799 143.169, 365.394 138 C 364.716 135.506, 364.723 135.508, 367.981 138.500 C 371.637 141.859, 374 146.605, 374 150.590 C 374 152.742, 374.263 153.027, 375.389 152.092 C 377.510 150.332, 378.914 143.030, 378.106 137.963 C 377.252 132.616, 376.402 131, 374.441 131 C 372.729 131, 372.595 129.625, 374.077 127.236 C 374.838 126.008, 374.844 124.691, 374.096 122.735 C 373.116 120.174, 372.742 120.018, 369.019 120.613 C 364.356 121.359, 363.932 120.352, 367.500 117 C 370.478 114.203, 370.668 112.428, 368.137 111.073 C 366.409 110.148, 366.371 109.699, 367.619 104.890 C 368.982 99.634, 368.648 95.887, 366.540 92.798 C 365.611 91.436, 365.391 92.552, 365.439 98.385 C 365.496 105.150, 363.874 111, 361.943 111 C 361.547 111, 359.441 108.188, 357.262 104.750 C 355.084 101.313, 348.320 93.063, 342.233 86.417 C 333.229 76.588, 330.263 73.995, 326.332 72.513 C 323.674 71.511, 317.900 68.127, 313.500 64.993 C 285.584 45.107, 257.022 36.815, 231.238 41.110 M 303.641 150.621 C 292.866 156.145, 283.977 157.982, 263.500 158.915 C 243.585 159.822, 243.956 159.722, 228.901 168.248 C 223.645 171.224, 214.597 175.351, 208.794 177.419 L 198.244 181.177 197.541 190.339 C 197.155 195.377, 196.200 202.567, 195.419 206.315 C 194.639 210.064, 194 214.789, 193.999 216.815 C 193.998 222.907, 197.147 237, 198.509 237 C 199.188 237, 200.024 238.751, 200.367 240.891 C 200.709 243.031, 201.624 245.025, 202.400 245.323 C 203.176 245.621, 204.113 247.240, 204.483 248.921 C 204.852 250.602, 205.601 252.253, 206.147 252.591 C 206.693 252.928, 207.489 254.148, 207.916 255.302 C 208.678 257.363, 208.738 257.353, 211.391 254.700 C 214.810 251.281, 215.389 251.307, 214.680 254.851 C 213.975 258.375, 214.881 262.192, 216.225 261.361 C 217.626 260.495, 218.961 262.952, 219.017 266.500 C 219.056 269.033, 219.488 268.496, 221.793 263.049 C 224.216 257.322, 225.317 256.031, 231.600 251.549 C 235.492 248.772, 243.240 242.338, 248.818 237.250 C 259.557 227.455, 262.170 226.321, 265.507 230.007 C 267.293 231.981, 267.273 232.005, 264.325 231.415 C 262.217 230.993, 260.819 231.324, 259.614 232.529 C 256.893 235.250, 258.019 237.421, 262.513 238.121 C 264.706 238.462, 269.425 239.536, 273 240.507 C 280.828 242.633, 285.465 241.730, 291.250 236.952 C 295.592 233.365, 295.866 232.280, 292.730 231.087 C 290.971 230.419, 290.186 228.919, 289.245 224.431 C 288.576 221.244, 288.188 218.478, 288.382 218.284 C 288.948 217.718, 299 232.928, 299 234.350 C 299 235.059, 297.338 237.582, 295.307 239.954 C 291.111 244.856, 290.742 244.048, 300.169 250.598 C 302.622 252.302, 305.499 255.452, 306.564 257.598 L 308.500 261.500 308.805 256.750 C 308.972 254.137, 309.502 252, 309.982 252 C 311.281 252, 314.990 257.026, 315.063 258.885 C 315.144 260.944, 316.434 257.904, 317.445 253.272 C 318.114 250.204, 317.946 249.962, 314.056 248.406 C 310.193 246.860, 306 242.886, 306 240.770 C 306 240.242, 307.993 240.978, 310.428 242.405 C 315.112 245.150, 318.446 245.705, 319.547 243.923 C 320.232 242.816, 321.492 234.375, 322.656 223.105 C 323.223 217.613, 322.916 215.555, 320.483 208.537 C 317.674 200.433, 317.665 200.321, 319.325 195.244 C 321.400 188.902, 321.435 185.742, 319.474 181.950 C 318.474 180.015, 317.183 179.004, 315.724 179.012 C 310.922 179.039, 287.711 191.045, 289.331 192.664 C 289.590 192.924, 292.179 192.430, 295.083 191.568 C 300.663 189.911, 306.065 189.620, 312.250 190.642 C 315.591 191.194, 316 191.582, 316 194.197 C 316 195.811, 315.503 198.060, 314.896 199.195 C 313.843 201.163, 313.257 201.226, 302.336 200.554 C 292.567 199.952, 290.509 200.091, 288.360 201.500 C 285.089 203.643, 283.462 202.929, 282.080 198.743 C 281.135 195.879, 281.284 194.613, 283.026 190.673 C 284.163 188.103, 285.486 186, 285.965 186 C 286.444 186, 289.236 183.934, 292.168 181.409 C 299.295 175.271, 306.564 171.188, 311.745 170.411 L 316 169.773 315.944 163.136 C 315.890 156.723, 313.340 147.884, 311.388 147.348 C 310.900 147.214, 307.413 148.687, 303.641 150.621 M 228 172.647 C 220.176 175.197, 218.985 176.239, 217.412 181.910 C 216.559 184.985, 215.022 190.088, 213.996 193.250 C 212.971 196.412, 212.300 199, 212.507 199 C 212.714 199, 214.963 196.297, 217.506 192.992 C 223.615 185.053, 226.564 183.577, 234.657 184.406 C 241.576 185.115, 257.916 189.537, 259.500 191.129 C 260.168 191.800, 259.526 192.848, 257.567 194.284 C 255.059 196.122, 253.248 196.438, 245.067 196.467 C 236.462 196.497, 234.902 196.802, 229.551 199.500 C 223.855 202.372, 220.876 205.209, 222.183 206.517 C 223.973 208.306, 259.431 206.951, 261.376 205.019 C 261.857 204.540, 262.055 201.443, 261.816 198.135 C 261.399 192.366, 261.485 192.095, 263.935 191.480 C 268.750 190.272, 271.178 186, 267.050 186 C 265.978 186, 263.083 184.639, 260.618 182.975 C 250.416 176.090, 233.688 170.793, 228 172.647 M 305.250 192.662 C 303.280 193.457, 303.792 196.799, 305.991 197.497 C 308.517 198.299, 310 197.393, 310 195.048 C 310 193.633, 307.709 191.591, 306.668 192.079 C 306.576 192.122, 305.938 192.385, 305.250 192.662 M 242.702 199.631 C 242.355 199.979, 242.534 201.129, 243.101 202.188 C 244.656 205.094, 251.376 204.371, 251.820 201.250 C 252.109 199.209, 251.730 199, 247.736 199 C 245.315 199, 243.049 199.284, 242.702 199.631 M 233.250 202.536 C 229.628 204.060, 229.078 205, 231.809 205 C 233.813 205, 237.784 202.450, 236.998 201.666 C 236.724 201.393, 235.037 201.784, 233.250 202.536 M 302.008 207.143 C 301.982 209.268, 310.754 209.632, 313.504 207.620 C 315.172 206.401, 314.616 206.256, 308.703 206.370 C 305.025 206.442, 302.012 206.789, 302.008 207.143 M 245.500 212.237 C 241.459 213.705, 238.630 213.951, 230.750 213.521 C 225.387 213.229, 221 213.371, 221 213.837 C 221 216.489, 236.951 217.975, 244.100 215.989 C 247.290 215.103, 251.995 211.452, 250.911 210.705 C 250.685 210.549, 248.250 211.239, 245.500 212.237 M 175.750 219.571 C 174.676 220.663, 174.835 225.865, 176.078 230.344 C 176.665 232.458, 176.941 234.393, 176.690 234.643 C 176.440 234.894, 174.527 233.940, 172.440 232.524 C 167.899 229.442, 164.901 228.579, 161.967 229.510 C 159.014 230.448, 159.852 234.432, 164.464 241.380 C 168.355 247.241, 171.708 249.545, 174.882 248.537 C 179.158 247.180, 180.154 241.620, 178.113 230.500 C 177.508 227.200, 176.897 223.219, 176.756 221.654 C 176.615 220.089, 176.162 219.151, 175.750 219.571 M 247.983 241.210 C 240.604 249.716, 238.988 252.245, 237.364 257.824 C 236.512 260.752, 235.989 263.322, 236.201 263.535 C 236.414 263.747, 238.593 262.591, 241.044 260.965 C 246.563 257.303, 247.398 257.271, 246.532 260.750 L 245.847 263.500 248.674 260.872 C 252.497 257.318, 255.712 255.725, 256.498 256.997 C 256.839 257.549, 256.840 258.450, 256.500 259 C 255.170 261.152, 257.778 259.841, 260.520 256.979 C 262.112 255.318, 265.805 252.312, 268.727 250.299 C 271.649 248.287, 273.694 246.297, 273.270 245.878 C 272.847 245.460, 270.250 244.597, 267.500 243.962 C 256.048 241.315, 255.013 240.903, 253.746 238.485 L 252.466 236.042 247.983 241.210 M 273.927 257.235 L 269.500 261.110 273 260.596 C 274.925 260.313, 279.650 259.781, 283.500 259.415 C 289.391 258.854, 290.104 258.599, 288 257.802 C 286.625 257.282, 283.892 256.070, 281.927 255.108 L 278.354 253.360 273.927 257.235 M 284 267.051 C 281.525 267.491, 276.694 267.885, 273.264 267.926 C 266.830 268.002, 258 269.862, 258 271.140 C 258 272.493, 261.484 272.942, 265.250 272.074 C 269.582 271.077, 270.146 272.203, 266.507 274.587 C 263.518 276.546, 259.546 275.828, 256.228 272.731 L 253.957 270.611 248.399 276.055 C 242.779 281.561, 239.855 286.129, 238.591 291.376 C 238.024 293.732, 238.179 294.139, 239.449 293.626 C 244.603 291.545, 244.338 291.446, 242.601 294.805 C 240 299.834, 240.769 300.619, 243.969 296.202 C 245.601 293.948, 247.913 291.582, 249.106 290.943 C 251.144 289.852, 251.235 289.954, 250.614 292.641 C 250.250 294.214, 249.721 298.425, 249.438 302 L 248.923 308.500 250.420 304.500 C 251.243 302.300, 253.307 299.249, 255.006 297.721 C 258.357 294.708, 260.677 294.867, 259.003 297.995 C 257.543 300.722, 257.841 309.097, 259.500 312 C 260.889 314.430, 260.930 314.366, 260.965 309.700 C 261.002 304.665, 262.352 301.319, 267.222 294.201 C 269.576 290.761, 269.925 289.615, 268.970 288.464 C 267.481 286.670, 268.315 283.140, 271.051 279.662 C 272.714 277.549, 274.006 276.995, 277.323 276.976 C 286.930 276.921, 292 274.310, 292 269.416 C 292 267.713, 289.652 265.393, 288.668 266.125 C 288.576 266.194, 286.475 266.611, 284 267.051 M 294.022 272.556 C 294.010 273.686, 292.895 276.109, 291.544 277.940 C 289.264 281.031, 289.192 281.471, 290.544 284.085 C 291.345 285.634, 292 288.668, 292 290.828 C 292 293.172, 292.631 295.279, 293.566 296.055 C 295.256 297.458, 297.790 301.968, 299.150 305.994 C 299.787 307.881, 299.891 307.413, 299.573 304.096 C 299.340 301.675, 298.202 298.412, 297.045 296.846 C 295.119 294.242, 295.091 294.002, 296.720 294.022 C 299.131 294.052, 302.439 296.862, 304.347 300.500 C 306.445 304.501, 306.457 301.933, 304.385 292.697 C 302.678 285.087, 299.309 277.153, 296.023 273 C 294.167 270.655, 294.043 270.628, 294.022 272.556 M 222.500 336 C 223.495 337.100, 224.535 338, 224.810 338 C 225.085 338, 224.495 337.100, 223.500 336 C 222.505 334.900, 221.465 334, 221.190 334 C 220.915 334, 221.505 334.900, 222.500 336 M 299.441 352.468 C 298.373 353.276, 296.359 353.951, 294.965 353.968 C 292.852 353.995, 291.897 355.079, 289.237 360.474 L 286.044 366.949 290.854 371.759 C 295.015 375.920, 295.957 377.654, 297.832 384.603 C 299.025 389.021, 300 393.393, 300 394.318 C 300 395.243, 300.433 396, 300.961 396 C 303.815 396, 305.956 371.597, 304.079 360.468 C 302.574 351.547, 301.990 350.540, 299.441 352.468 M 277.314 386.976 C 278.516 389.713, 279.849 391.963, 280.275 391.976 C 280.701 391.989, 281.500 390.814, 282.051 389.365 C 283.365 385.911, 280.970 382, 277.541 382 L 275.127 382 277.314 386.976 M 264.763 415.565 C 256.770 419.902, 257.459 433.083, 265.906 437.451 C 269.915 439.525, 272.837 439.397, 276.810 436.974 C 281.427 434.160, 283.122 429.707, 281.849 423.739 C 280.056 415.333, 272.156 411.554, 264.763 415.565" stroke="none" fill-rule="evenodd"/>
</svg>