<svg xmlns="http://www.w3.org/2000/svg" width="512" height="512" viewBox="0 0 512 512" version="1.1">
	<path d="M 20 97.919 L 20 107.839 30.250 118.255 C 35.888 123.984, 41.962 129.517, 43.750 130.551 C 45.538 131.585, 47.040 133.122, 47.089 133.966 C 47.137 134.810, 47.100 192.190, 47.007 261.477 C 46.850 377.424, 46.703 387.623, 45.168 389.584 C 44.251 390.756, 41.588 394.069, 39.250 396.947 L 35 402.180 35 417.590 L 35 433 39 433 L 43 433 43 423.500 L 43 414 255.393 414 C 448.145 414, 467.842 414.146, 468.393 415.582 C 468.727 416.452, 469 420.727, 469 425.082 L 469 433 472.569 433 L 476.138 433 475.819 417.163 L 475.500 401.325 469.250 394.279 L 463 387.232 463 260.282 L 463 133.332 468.250 129.700 C 471.138 127.701, 475.823 123.437, 478.662 120.223 C 481.500 117.009, 485.435 113.281, 487.405 111.940 L 490.986 109.500 490.993 98.750 L 491 88 255.500 88 L 20 88 20 97.919 M 28.250 99.724 C 26.549 100.038, 26 100.825, 26 102.947 C 26 104.492, 26.610 106.261, 27.355 106.880 C 28.352 107.707, 88.980 107.938, 256.605 107.752 L 484.500 107.500 484.824 104.105 C 485.019 102.062, 484.621 100.377, 483.824 99.875 C 482.527 99.057, 32.672 98.907, 28.250 99.724 M 63.864 134.807 C 62.161 136, 62 137.692, 62 154.366 C 62 167.848, 62.343 173.087, 63.312 174.412 C 64.512 176.053, 66.534 176.193, 87.013 176.058 C 101.333 175.964, 109.871 175.522, 110.701 174.833 C 112.580 173.273, 112.582 135.161, 110.703 134.440 C 109.990 134.166, 99.579 133.843, 87.567 133.721 C 70.915 133.553, 65.285 133.810, 63.864 134.807 M 401.767 133.865 C 398.463 134.817, 398 137.348, 398 154.469 C 398 168.315, 398.295 171.976, 399.557 173.777 C 401.088 175.964, 401.485 176, 423.950 176 C 443.851 176, 446.864 175.797, 447.393 174.418 C 448.353 171.917, 448.069 136.657, 447.076 135.089 C 446.355 133.949, 442.023 133.660, 424.609 133.589 C 412.743 133.540, 402.464 133.664, 401.767 133.865 M 127.670 134.663 C 126.397 135.936, 126.898 181.498, 128.200 182.800 C 130.250 184.850, 134.594 184.145, 144.730 180.120 C 173.068 168.864, 199.430 162.898, 233.500 160.031 C 273.414 156.671, 318.803 163.111, 359.414 177.897 C 375.813 183.867, 378.282 184.455, 380.959 183.022 C 382.984 181.938, 383.029 181.316, 382.768 158.205 L 382.500 134.500 255.420 134.246 C 185.527 134.107, 128.039 134.294, 127.670 134.663 M 62 288.025 L 62 391.050 64.565 392.025 C 68.531 393.533, 114.933 393.257, 118 391.707 C 120.457 390.466, 120.505 390.211, 120.788 376.972 C 120.946 369.562, 120.822 362.476, 120.513 361.225 C 120.159 359.795, 118.277 358.137, 115.449 356.763 C 112.063 355.118, 111.135 354.195, 111.703 353.038 C 112.483 351.447, 113.633 280.578, 113.867 219.750 L 114 185 88 185 L 62 185 62 288.025 M 386.363 186.163 C 385.128 188.076, 384.555 356, 385.783 356 C 389.182 356, 389.257 354.203, 389.379 270.044 C 389.499 187.787, 389.278 181.645, 386.363 186.163 M 395.453 186.263 C 395.179 186.975, 395.078 225.458, 395.228 271.780 C 395.434 335.707, 395.217 356, 394.327 356 C 393.681 356, 391.769 357.165, 390.077 358.589 L 387 361.178 387 374.898 C 387 385.162, 387.357 389.107, 388.418 390.559 C 389.751 392.384, 391.448 392.518, 416.752 392.795 C 441.441 393.066, 443.843 392.942, 445.794 391.295 L 447.920 389.500 448.210 287.500 L 448.500 185.500 422.225 185.233 C 401.437 185.022, 395.846 185.237, 395.453 186.263 M 118.511 227.199 C 117.498 284.920, 118.506 352.934, 120.403 354.831 C 121.632 356.060, 121.910 355.524, 122.457 350.877 C 122.805 347.919, 122.957 309.731, 122.795 266.014 C 122.526 193.450, 122.358 186.500, 120.868 186.213 C 119.390 185.929, 119.169 189.783, 118.511 227.199 M 415.030 193.255 C 411.461 195.096, 408.269 200.347, 407.094 206.312 C 406.485 209.402, 405.956 236.571, 405.786 273.500 L 405.500 335.500 408.210 341.285 C 410.364 345.879, 411.667 347.381, 414.546 348.584 C 421.392 351.444, 427.331 347.643, 431.254 337.890 C 433.373 332.621, 433.431 331.212, 433.796 275.215 C 434.191 214.513, 433.826 207.858, 429.697 200.568 C 425.931 193.918, 419.735 190.828, 415.030 193.255 M 83.661 195.993 C 81.786 197.639, 79.205 201.351, 77.925 204.243 C 75.756 209.143, 75.575 211.026, 75.256 232 C 75.067 244.375, 75.270 272.533, 75.707 294.573 L 76.500 334.647 79.516 340.573 C 84.364 350.100, 90.848 351.981, 97.033 345.655 C 103.039 339.512, 103.102 338.689, 102.786 269.870 L 102.500 207.500 100.111 202.213 C 95.827 192.733, 89.918 190.499, 83.661 195.993 M 130.662 223.796 C 129.475 273.773, 129.849 390.449, 131.200 391.800 C 132.908 393.508, 140.148 393.285, 142.777 391.443 L 145 389.887 144.991 323.693 L 144.982 257.500 155.416 247.347 C 177.664 225.699, 205.452 211.225, 233.898 206.468 C 248.838 203.970, 272.789 204.845, 286.129 208.376 C 296.273 211.061, 307.857 215.374, 315.978 219.489 C 326.120 224.628, 345.295 238.400, 353.985 246.787 L 363.014 255.500 363.007 323.215 C 363 390.243, 363.021 390.941, 365.030 392.016 C 366.146 392.614, 369.409 392.967, 372.280 392.801 L 377.500 392.500 377.755 294.750 C 378.041 185.026, 378.710 193.539, 370.401 201.198 C 363.138 207.893, 363 208.429, 363 229.950 C 363 240.428, 362.710 249, 362.356 249 C 362.002 249, 357.990 245.426, 353.439 241.057 C 332.443 220.899, 307.448 205.912, 285 200.019 C 274.235 197.193, 247.048 196.077, 235.200 197.975 C 208.365 202.274, 184.590 215.481, 155.832 242.063 C 150.514 246.979, 145.902 251, 145.582 251 C 145.262 251, 145 241.875, 145 230.723 C 145 213.526, 144.749 210.069, 143.347 207.973 C 140.977 204.429, 136.913 200.114, 133.910 197.954 L 131.319 196.091 130.662 223.796 M 416.091 204.403 C 414.849 205.725, 413.498 208.313, 413.088 210.153 C 411.799 215.942, 412.535 334.263, 413.876 336.768 C 416.981 342.570, 423.552 341.367, 425.772 334.590 C 426.758 331.580, 426.983 316.828, 426.772 268.934 L 426.500 207.160 424.076 204.580 C 421.056 201.367, 418.987 201.321, 416.091 204.403 M 84.094 205.608 L 81.957 208.325 82.228 271.090 C 82.497 333.155, 82.523 333.886, 84.608 336.677 C 87.470 340.510, 92.923 340.686, 94.633 337 C 95.461 335.215, 95.894 316.582, 96.146 271.829 C 96.498 209.466, 96.490 209.145, 94.401 206.329 C 91.432 202.327, 86.923 202.011, 84.094 205.608 M 237 258.496 C 224.246 261.063, 208.988 268.051, 193.769 278.296 L 186.039 283.500 186.019 331.143 C 185.999 382.071, 185.805 380, 190.595 380 C 191.383 380, 197.083 382.269, 203.263 385.042 L 214.500 390.085 254 390.161 L 293.500 390.236 308 384.282 L 322.500 378.328 322.760 330.766 L 323.019 283.205 315.194 278.185 C 296.642 266.285, 285.762 261.256, 272.792 258.586 C 263.572 256.689, 246.199 256.645, 237 258.496 M 236.350 266.923 C 222.814 270.588, 210.257 276.673, 197.536 285.729 L 193 288.959 193 330.357 C 193 362.283, 193.286 371.981, 194.250 372.741 C 194.938 373.284, 200.156 375.817, 205.846 378.370 L 216.192 383.012 253.846 383.169 L 291.500 383.325 303 378.369 L 314.500 373.412 315.112 356.956 C 315.448 347.905, 315.786 328.709, 315.862 314.298 L 316 288.096 311.750 285.186 C 302.667 278.967, 288.975 271.952, 279.945 268.891 C 271.533 266.039, 269.024 265.650, 257 265.338 C 245.984 265.051, 242.184 265.343, 236.350 266.923 M 252.052 289.244 C 250.872 291.859, 249.478 297.918, 248.945 302.744 C 248.414 307.560, 247.489 314.937, 246.891 319.137 C 245.809 326.733, 245.789 326.771, 243.151 326.074 C 240.731 325.435, 240.346 324.610, 238.741 316.622 C 236.815 307.043, 233.126 298.281, 233.044 303.092 C 233.020 304.518, 231.650 312.053, 230 319.837 C 228.350 327.621, 227 335.602, 227 337.573 L 227 341.156 231.180 337.578 C 237.824 331.891, 241.293 333.222, 242.489 341.919 C 243.157 346.775, 243.257 346.897, 246.836 347.195 C 250.448 347.496, 250.504 347.567, 250.805 352.250 C 251.096 356.794, 251.240 357, 254.111 357 C 257.014 357, 257.062 356.926, 255.557 354.777 C 254.701 353.555, 254 351.314, 254 349.797 C 254 346.508, 257.329 345.222, 261.805 346.782 L 264.646 347.772 264.244 342.636 C 263.974 339.193, 264.313 336.871, 265.273 335.592 C 266.661 333.741, 266.869 333.778, 272.224 336.842 C 275.260 338.579, 277.928 340, 278.154 340 C 278.785 340, 277.280 322.969, 276.073 316.437 C 275.483 313.245, 275 308.604, 275 306.125 C 275 301.929, 274.897 301.752, 273.509 303.559 C 272.165 305.307, 268.528 315.948, 264.642 329.500 C 263.331 334.072, 263.199 334.221, 263.104 331.233 C 263.047 329.435, 262.114 323.810, 261.030 318.733 C 259.947 313.655, 258.329 304.809, 257.434 299.075 C 256.539 293.342, 255.443 287.717, 254.999 286.575 C 254.288 284.748, 253.936 285.066, 252.052 289.244 M 217.994 318.128 C 217.990 320.532, 217.254 323.850, 216.357 325.500 C 211.527 334.389, 211.645 333.867, 213.098 339.869 C 213.848 342.966, 214.316 347.637, 214.139 350.250 C 213.887 353.965, 214.146 355, 215.329 355 C 216.177 355, 217.115 353.753, 217.465 352.160 C 217.808 350.597, 219.783 347.664, 221.855 345.642 L 225.621 341.965 224.771 334.232 C 223.788 325.293, 221.339 316.526, 219.367 314.890 C 218.247 313.960, 217.999 314.544, 217.994 318.128 M 284.382 322 C 282.666 326.675, 281.045 332.862, 280.778 335.750 C 280.300 340.931, 280.349 341.045, 284.571 344.504 C 287.024 346.515, 289.340 349.500, 290.002 351.505 C 291.743 356.781, 293.104 355.705, 292.853 349.250 C 292.731 346.087, 292.998 340.939, 293.446 337.809 C 294.222 332.394, 294.112 331.930, 291.189 328.239 C 288.771 325.186, 288.051 323.203, 287.809 318.930 L 287.500 313.500 284.382 322 M 230.280 356.736 C 232.909 356.943, 236.959 356.940, 239.280 356.731 C 241.601 356.521, 239.450 356.352, 234.500 356.355 C 229.550 356.358, 227.651 356.530, 230.280 356.736 M 269.750 356.732 C 272.087 356.943, 275.913 356.943, 278.250 356.732 C 280.587 356.522, 278.675 356.349, 274 356.349 C 269.325 356.349, 267.413 356.522, 269.750 356.732 M 218 367.441 C 218 372.637, 219.481 375.932, 220.182 372.295 C 220.472 370.789, 221.871 370.561, 230.988 370.532 C 240.149 370.504, 241.503 370.281, 241.804 368.750 C 242.111 367.182, 241.160 367, 232.682 367 C 223.420 367, 223.203 366.946, 222.589 364.500 C 222.184 362.886, 221.260 362, 219.981 362 C 218.249 362, 218 362.684, 218 367.441 M 258.585 362.748 C 258.263 363.070, 258 365.283, 258 367.667 C 258 371.952, 258.038 372, 261.500 372 C 264.902 372, 265 371.891, 265 368.098 C 265 364.686, 264.633 364.068, 262.085 363.179 C 260.482 362.621, 258.907 362.427, 258.585 362.748 M 284.423 364.484 C 282.071 366.663, 280.791 367, 274.854 367 C 268.583 367, 268 367.177, 268 369.076 C 268 371.036, 268.461 371.134, 276.250 370.826 C 282.444 370.581, 284.774 370.850, 285.598 371.903 C 287.411 374.218, 289 372.162, 289 367.500 C 289 362.017, 287.880 361.279, 284.423 364.484 M 245.191 363.918 C 242.584 364.575, 242.538 364.722, 243.438 369.520 C 243.963 372.320, 244.550 373, 246.438 373 C 249.009 373, 250 371.337, 250 367.025 C 250 363.909, 248.660 363.043, 245.191 363.918 M 42.938 400.663 C 42.234 402.514, 42.257 403.657, 43.013 404.413 C 44.200 405.600, 447.247 406.599, 460.750 405.447 C 467.382 404.882, 468 404.640, 468 402.615 C 468 401.397, 467.460 399.860, 466.800 399.200 C 465.874 398.274, 417.417 398, 254.775 398 L 43.950 398 42.938 400.663 M 81 452.750 L 81 473.500 257.069 473.500 L 433.138 473.500 432.404 471 C 432.001 469.625, 431.501 460.288, 431.293 450.250 L 430.915 432 255.957 432 L 81 432 81 452.750" stroke="none" fill="black" fill-rule="evenodd"/>
</svg>