<svg xmlns="http://www.w3.org/2000/svg" width="512" height="512" viewBox="0 0 512 512" version="1.1">
	<path d="M 242 29.078 C 226.100 30.799, 206.987 38.259, 195.248 47.326 C 181.589 57.876, 169.314 74.015, 161.836 91.255 C 159.654 96.286, 156.053 106.949, 153.834 114.951 C 151.615 122.953, 149.507 129.812, 149.149 130.194 C 148.792 130.576, 141.445 132.930, 132.823 135.425 C 107.723 142.690, 92.201 149.550, 83.467 157.238 C 78.381 161.715, 76.504 164.798, 75.453 170.401 C 75.057 172.509, 73.442 175.705, 71.863 177.503 C 65.671 184.555, 64.579 191.434, 68.370 199.500 C 70.876 204.832, 80.375 214.591, 85.779 217.386 C 88.684 218.888, 89 219.493, 89 223.559 C 89 226.393, 89.935 229.911, 91.518 233.036 C 95.085 240.074, 98.760 271.827, 96.919 279.703 C 95.722 284.824, 95.767 285.037, 99.763 293.203 C 103.579 300.999, 103.920 302.438, 105.412 317.043 C 106.285 325.592, 107 336.785, 107 341.917 C 107 350.371, 107.320 351.965, 110.404 358.874 C 113.259 365.271, 114.153 369.172, 115.948 383.074 C 117.626 396.076, 117.864 400.645, 117.050 404.276 C 115.874 409.526, 116.371 411.362, 120.905 418.512 C 122.844 421.568, 124.008 424.720, 124.022 426.946 C 124.131 444.667, 158.447 467.634, 200.158 477.903 C 242.149 488.241, 285.593 486.591, 325.857 473.129 C 358.525 462.206, 383 442.763, 383 427.733 C 383 425.500, 384.394 421.430, 386.614 417.179 L 390.228 410.260 388.955 403.138 C 387.866 397.043, 387.934 393.887, 389.426 381.258 C 390.923 368.579, 391.670 365.413, 394.726 358.784 C 396.683 354.540, 398.246 349.815, 398.200 348.284 C 398.153 346.753, 398.025 342.125, 397.914 338 C 397.803 333.875, 398.488 324.200, 399.436 316.500 C 400.868 304.854, 401.733 301.263, 404.579 295.146 C 408.072 287.637, 408.726 283.017, 407.097 277.340 C 406.499 275.254, 406.794 268.345, 407.972 256.847 C 409.380 243.093, 410.292 238.212, 412.374 233.280 C 413.818 229.859, 415 225.729, 415 224.103 C 415 221.573, 415.834 220.638, 420.762 217.645 C 436.716 207.953, 443.462 194.738, 437.974 183.926 C 436.738 181.492, 434.663 178.228, 433.363 176.673 C 432.047 175.098, 431 172.534, 431 170.883 C 431 166.425, 427.630 160.700, 422.284 156.078 C 415.669 150.357, 395.873 140.856, 381.500 136.502 C 374.900 134.503, 367.048 132.109, 364.052 131.184 L 358.604 129.500 354.768 116.028 C 352.658 108.619, 349.307 98.719, 347.321 94.028 C 331.308 56.202, 301.848 33.327, 263.666 29.069 C 253.176 27.899, 252.887 27.899, 242 29.078 M 253.500 38.618 C 227.149 42.076, 207.192 52.119, 190.352 70.397 C 179.004 82.713, 170.134 99.981, 164.615 120.500 C 163.136 126, 161.211 133.039, 160.337 136.142 C 159.464 139.245, 159.057 142.283, 159.433 142.892 C 160.359 144.390, 167.906 144.271, 170.991 142.710 C 174.418 140.976, 174.656 138.298, 171.664 135.151 C 168.263 131.575, 167.653 128.429, 168.960 121.218 C 175.479 85.271, 203.514 53.181, 235.560 44.985 C 250.476 41.170, 270.460 42.831, 285.691 49.153 C 299.675 54.957, 316.803 69.321, 326.002 82.960 C 328.399 86.513, 330.536 88.893, 330.751 88.248 C 331.472 86.083, 322.944 71.279, 317.524 65.290 C 307.981 54.744, 290.303 44.136, 276.500 40.672 C 269.977 39.035, 258.282 37.991, 253.500 38.618 M 238.500 55.973 C 229.583 58.345, 224.972 60.320, 218.051 64.731 C 204.669 73.259, 193.087 86.279, 186.477 100.225 C 182.705 108.183, 178.106 124.439, 179.291 125.624 C 179.700 126.033, 188.914 125.272, 199.767 123.934 C 217.653 121.728, 223.104 121.505, 258 121.548 C 287.456 121.586, 300.232 122.004, 312.387 123.329 C 321.124 124.281, 328.509 124.824, 328.797 124.536 C 329.085 124.248, 328.745 121.422, 328.042 118.256 C 323.563 98.105, 312.919 80.206, 299.089 69.571 C 281.420 55.983, 258.117 50.753, 238.500 55.973 M 337.378 100.500 C 339.685 114.448, 340.989 123.934, 340.994 126.800 C 341.001 130.602, 339.123 134.674, 336.102 137.407 C 334.946 138.454, 334 139.679, 334 140.129 C 334 141.882, 340.156 144, 345.250 144 C 351.854 144, 353.436 142.743, 351.513 139.025 C 350.751 137.552, 348.999 132.331, 347.618 127.423 C 344.830 117.509, 338.114 97.778, 337.263 97 C 336.963 96.725, 337.015 98.300, 337.378 100.500 M 204 132.103 C 186.058 133.506, 182.446 134.262, 182.845 136.536 C 183.035 137.616, 183.322 138.638, 183.484 138.806 C 183.646 138.974, 191.590 137.982, 201.139 136.602 C 210.688 135.221, 221.571 133.781, 225.323 133.400 C 229.605 132.966, 231.654 132.396, 230.823 131.870 C 229.252 130.874, 218.531 130.967, 204 132.103 M 263 131.847 C 260.498 132.363, 263.206 132.761, 272.500 133.245 C 279.650 133.617, 291.800 134.693, 299.500 135.637 C 307.200 136.580, 316.425 137.386, 320 137.426 C 325.912 137.493, 326.528 137.306, 326.806 135.355 C 327.073 133.479, 326.509 133.139, 322.306 132.643 C 314.388 131.708, 266.773 131.069, 263 131.847 M 363 141.859 C 363 144.703, 364.581 145.590, 377.577 150.036 C 392.780 155.238, 405.910 161.578, 413.869 167.561 C 418.220 170.832, 420.450 171.950, 421.176 171.224 C 422.749 169.651, 419.355 164.594, 414.276 160.946 C 407.265 155.911, 392.719 149.133, 380.188 145.062 C 363.630 139.682, 363 139.565, 363 141.859 M 126.335 146.443 C 101.428 154.725, 84 164.771, 84 170.845 C 84 172.030, 84.306 173, 84.681 173 C 85.055 173, 88.665 170.716, 92.703 167.925 C 102.320 161.276, 113.517 156.112, 129.500 150.953 C 141.323 147.137, 146 144.568, 146 141.889 C 146 140.248, 142.586 141.039, 126.335 146.443 M 179.520 145.972 C 176.490 149.329, 171.299 151.064, 162.382 151.700 C 155.994 152.155, 153.564 151.929, 150.979 150.639 C 146.896 148.603, 147 148.594, 147 150.965 C 147 153.944, 150.716 155.328, 158.582 155.277 C 170.902 155.198, 182.793 150.251, 181.863 145.594 C 181.529 143.924, 181.342 143.954, 179.520 145.972 M 325 145.429 C 325 147.634, 327.943 150.080, 333.984 152.895 C 338.623 155.057, 340.851 155.451, 348 155.375 C 357.820 155.272, 362 153.973, 362 151.025 C 362 148.627, 361.702 148.597, 356.500 150.471 C 348.265 153.438, 334.201 151.364, 328.945 146.409 C 326.019 143.650, 325 143.397, 325 145.429 M 216.516 160.612 C 190.212 163.215, 157.445 170.034, 137.401 177.077 C 132.506 178.797, 123.598 182.705, 117.607 185.761 C 107.942 190.691, 106.913 191.463, 108.479 192.608 C 110.729 194.253, 126.497 200.009, 130.659 200.704 C 132.561 201.022, 139.726 199.799, 148.659 197.632 C 184.578 188.917, 210.684 185.213, 242.500 184.316 C 282.612 183.185, 314.678 186.914, 360.913 198.087 C 375.939 201.718, 375.253 201.766, 391.259 195.974 C 396.067 194.234, 400 192.405, 400 191.909 C 400 190.337, 377.980 180.305, 365.158 176.036 C 341.613 168.197, 313.790 162.387, 288.500 160.028 C 273.353 158.615, 233.426 158.939, 216.516 160.612 M 75 187.352 C 75 191.796, 78.250 196.406, 85.502 202.248 C 106.672 219.303, 168.179 236.346, 223.750 240.557 C 234.460 241.369, 234.565 241.251, 230.102 233.500 C 224.379 223.559, 224.394 223.567, 207.487 222.164 C 188.823 220.614, 162.545 216.883, 143.126 213.025 C 115.925 207.621, 91.046 197.730, 80.896 188.284 C 78.364 185.928, 76.002 184, 75.646 184 C 75.291 184, 75 185.508, 75 187.352 M 425.051 189.103 C 412.848 200.134, 392.780 207.418, 356.573 213.957 C 340.667 216.830, 305.788 221.232, 288.699 222.523 L 279.898 223.188 275.877 228.275 C 272.042 233.127, 267.502 240.901, 268.180 241.455 C 268.825 241.980, 296.043 238.870, 315.500 236.047 C 376.578 227.185, 422.866 210.445, 430.443 194.479 C 432.042 191.110, 431.864 184.937, 430.171 185.041 C 429.802 185.064, 427.498 186.892, 425.051 189.103 M 395.398 233.002 C 393.593 234.807, 364.840 243.689, 348.999 247.336 C 334.183 250.747, 317.464 253.655, 288 257.945 L 274.500 259.911 292 259.485 C 301.625 259.250, 314.225 258.372, 320 257.533 C 350.666 253.078, 385.180 242.315, 395.003 234.144 C 396.376 233.001, 397.252 232.052, 396.950 232.033 C 396.647 232.015, 395.949 232.451, 395.398 233.002 M 114.802 234.574 C 122.026 239.634, 146.782 248.461, 166.049 252.847 C 182.345 256.556, 203.801 259.693, 218 260.441 C 227.469 260.940, 228.205 260.858, 225.500 259.610 C 223.850 258.849, 213.500 256.789, 202.500 255.032 C 167.245 249.402, 133.168 241.287, 118.655 235.066 C 112.886 232.594, 111.771 232.451, 114.802 234.574 M 115.091 257 C 114.983 261.048, 118.736 293.070, 119.396 293.729 C 120.354 294.687, 120.134 291.611, 117.953 273.500 C 115.883 256.314, 115.213 252.449, 115.091 257 M 392.195 260.500 C 392.215 262.150, 392.439 262.704, 392.693 261.731 C 392.947 260.758, 392.930 259.408, 392.656 258.731 C 392.382 258.054, 392.175 258.850, 392.195 260.500 M 384.625 260.675 C 383.729 263.606, 379.874 299.208, 380.396 299.730 C 381.017 300.350, 381.561 296.913, 384.054 276.647 C 385.932 261.379, 386.133 255.738, 384.625 260.675 M 123.513 262.750 C 123.920 265.168, 125.510 278.296, 127.570 296.250 C 127.933 299.413, 128.629 302, 129.115 302 C 130.428 302, 130.236 299.292, 127.496 279.143 C 126.123 269.047, 125 260.609, 125 260.393 C 125 260.177, 124.561 260, 124.025 260 C 123.489 260, 123.258 261.238, 123.513 262.750 M 134.427 268.250 C 134.803 270.587, 135.957 279.910, 136.991 288.967 C 138.487 302.058, 139.232 305.697, 140.627 306.717 C 143.275 308.653, 144.764 308.269, 144.374 305.750 C 144.182 304.512, 142.874 295.625, 141.468 286 C 138.679 266.908, 137.876 264, 135.394 264 C 134.013 264, 133.856 264.692, 134.427 268.250 M 372.751 264.689 C 371.789 264.941, 370.768 266.126, 370.484 267.323 C 369.594 271.065, 364.201 307.484, 364.490 307.799 C 365.399 308.789, 370.295 306.392, 370.978 304.622 C 371.429 303.455, 372.546 295.075, 373.462 286 C 374.378 276.925, 375.376 268.262, 375.680 266.750 C 376.234 263.996, 376.009 263.838, 372.751 264.689 M 391.232 267 C 391.232 268.925, 391.438 269.712, 391.689 268.750 C 391.941 267.788, 391.941 266.212, 391.689 265.250 C 391.438 264.288, 391.232 265.075, 391.232 267 M 151.231 290.716 C 153.636 308.263, 154.396 311.768, 156.111 313.218 C 158.170 314.959, 164.662 316.671, 165.610 315.723 C 166.467 314.866, 162.885 276.593, 161.828 275.305 C 161.288 274.647, 158.518 273.344, 155.673 272.409 C 152.828 271.474, 150.023 270.534, 149.441 270.321 C 148.778 270.078, 149.447 277.706, 151.231 290.716 M 358.509 271.250 C 357.227 274.993, 354.334 313.003, 355.414 311.917 C 355.642 311.688, 357.002 303.175, 358.436 293 C 359.871 282.825, 361.268 273.488, 361.541 272.250 C 361.890 270.670, 361.576 270, 360.488 270 C 359.635 270, 358.745 270.563, 358.509 271.250 M 390.232 275 C 390.232 276.925, 390.438 277.712, 390.689 276.750 C 390.941 275.788, 390.941 274.212, 390.689 273.250 C 390.438 272.288, 390.232 273.075, 390.232 275 M 343.250 275.491 C 341.462 276.268, 339.994 277.488, 339.987 278.202 C 339.980 278.916, 339.314 287.150, 338.507 296.500 C 336.462 320.207, 336.265 318.360, 340.750 317.522 C 342.813 317.137, 344.703 316.621, 344.952 316.375 C 345.201 316.130, 346.339 306.495, 347.481 294.965 C 349.778 271.771, 349.953 272.577, 343.250 275.491 M 171.996 279.750 C 171.981 285.501, 175.457 317.697, 176.196 318.655 C 176.973 319.662, 187.303 322, 190.978 322 C 192.042 322, 192.156 318.344, 191.578 302.750 C 191.185 292.163, 190.505 283.133, 190.067 282.685 C 189.257 281.857, 175.537 278.048, 173.250 278.017 C 172.563 278.008, 171.998 278.788, 171.996 279.750 M 323 281.018 C 319.425 281.975, 315.748 283.072, 314.828 283.456 C 312.910 284.257, 312.184 290.735, 311.757 310.863 L 311.495 323.225 317.893 322.570 C 325.958 321.744, 327.992 320.669, 328.030 317.215 C 328.046 315.722, 328.691 306.850, 329.464 297.500 C 330.236 288.150, 330.560 280.225, 330.184 279.889 C 329.808 279.553, 326.575 280.061, 323 281.018 M 389.252 283.500 C 389.263 285.700, 389.468 286.482, 389.707 285.238 C 389.946 283.994, 389.937 282.194, 389.687 281.238 C 389.437 280.282, 389.241 281.300, 389.252 283.500 M 200.446 303.745 C 200.933 316.932, 201.561 323.736, 202.337 324.230 C 202.977 324.637, 205.249 324.976, 207.386 324.985 L 211.272 325 210.636 320.360 C 210.286 317.809, 210 309.055, 210 300.907 L 210 286.094 206.250 285.053 C 199.270 283.114, 199.640 281.922, 200.446 303.745 M 219.581 306 C 220.013 319.485, 220.625 326.749, 221.369 327.227 C 223.036 328.299, 226.240 327.127, 228.375 324.663 C 230.018 322.767, 230.183 321.327, 229.711 313 C 229.098 302.181, 226.464 294.077, 221.856 288.835 L 218.924 285.500 219.581 306 M 296.157 286.995 C 294.319 287.430, 292.456 288.171, 292.017 288.643 C 291.578 289.114, 291.057 297.600, 290.859 307.500 L 290.500 325.500 293.888 325.824 C 299.701 326.379, 301.857 325.346, 302.405 321.742 C 302.675 319.959, 303.159 311.188, 303.479 302.250 L 304.061 286 301.781 286.102 C 300.526 286.159, 297.996 286.560, 296.157 286.995 M 277.301 294.193 C 275.541 296.012, 273.383 299.223, 272.504 301.330 C 270.341 306.516, 269.252 324.394, 270.973 326.468 C 272.540 328.355, 279.854 328.544, 280.556 326.715 C 280.827 326.008, 280.926 317.657, 280.775 308.158 L 280.500 290.885 277.301 294.193 M 122.232 322 C 122.232 323.925, 122.438 324.712, 122.689 323.750 C 122.941 322.788, 122.941 321.212, 122.689 320.250 C 122.438 319.288, 122.232 320.075, 122.232 322 M 129.390 325 C 129.668 326.925, 130.615 334.800, 131.495 342.500 C 133.665 361.492, 133.932 363, 135.133 363 C 135.772 363, 135.956 361.548, 135.609 359.250 C 135.298 357.188, 134.085 348.525, 132.914 340 C 131.743 331.475, 130.358 323.825, 129.835 323 C 129.172 321.952, 129.037 322.555, 129.390 325 M 378.607 324.132 C 377.538 329.301, 374.037 359.370, 374.456 359.789 C 374.702 360.035, 375.145 359.170, 375.440 357.868 C 376.406 353.615, 379.947 322.614, 379.517 322.183 C 379.286 321.953, 378.877 322.830, 378.607 324.132 M 384.158 328 C 384.158 329.375, 384.385 329.938, 384.662 329.250 C 384.940 328.563, 384.940 327.438, 384.662 326.750 C 384.385 326.063, 384.158 326.625, 384.158 328 M 123.232 330 C 123.232 331.925, 123.438 332.712, 123.689 331.750 C 123.941 330.788, 123.941 329.212, 123.689 328.250 C 123.438 327.288, 123.232 328.075, 123.232 330 M 140.374 330.939 C 140.721 333.105, 141.895 342.411, 142.985 351.619 C 144.907 367.868, 145.559 369.946, 148.750 369.985 C 150.338 370.004, 150.445 371.549, 147.370 350 C 144.443 329.483, 143.798 327, 141.397 327 C 140.033 327, 139.854 327.689, 140.374 330.939 M 366.250 328.993 C 364.462 330.081, 362.980 331.540, 362.957 332.235 C 362.933 332.931, 362.088 341.375, 361.080 351 C 360.072 360.625, 359.388 368.659, 359.561 368.854 C 359.734 369.049, 361.141 368.789, 362.687 368.277 C 364.808 367.575, 365.565 366.627, 365.764 364.423 C 365.909 362.815, 366.953 354.171, 368.085 345.214 C 369.217 336.257, 369.998 328.498, 369.821 327.972 C 369.645 327.446, 368.038 327.905, 366.250 328.993 M 383.195 335.500 C 383.215 337.150, 383.439 337.704, 383.693 336.731 C 383.947 335.758, 383.930 334.408, 383.656 333.731 C 383.382 333.054, 383.175 333.850, 383.195 335.500 M 124.272 338 C 124.272 340.475, 124.467 341.488, 124.706 340.250 C 124.944 339.012, 124.944 336.988, 124.706 335.750 C 124.467 334.512, 124.272 335.525, 124.272 338 M 154 334.895 C 154 337.558, 159.254 373.578, 159.704 374 C 160.480 374.728, 158.994 353.214, 157.942 348.500 C 157.451 346.300, 157.038 342.137, 157.024 339.250 C 157.006 335.261, 156.640 334, 155.500 334 C 154.675 334, 154 334.403, 154 334.895 M 354.390 335.427 C 354.088 336.212, 354.009 337.900, 354.214 339.177 C 354.488 340.886, 354.721 340.509, 355.093 337.750 C 355.616 333.868, 355.339 332.952, 354.390 335.427 M 163 338.965 C 163 340.595, 165.579 343, 167.327 343 C 168.495 343, 168.912 339.599, 167.895 338.373 C 166.154 336.276, 163 336.657, 163 338.965 M 341 338.246 C 339.075 338.741, 336.992 339.676, 336.370 340.323 C 335.330 341.407, 333 365.326, 333 374.917 C 333 378.901, 333.092 379.017, 335.750 378.400 C 342.570 376.818, 342.603 376.734, 343.978 357.803 C 344.670 348.268, 345.071 339.765, 344.868 338.907 C 344.569 337.639, 343.843 337.515, 341 338.246 M 177.016 341.231 C 177.025 341.929, 177.924 350.825, 179.013 361 C 180.103 371.175, 180.996 379.816, 180.997 380.203 C 181.001 381.210, 187.904 382.988, 191.836 382.994 L 195.171 383 194.460 363.750 C 194.069 353.163, 193.624 344.356, 193.471 344.180 C 193.214 343.883, 186.126 342.025, 179.750 340.584 C 177.865 340.157, 177.005 340.361, 177.016 341.231 M 316.403 343.671 L 310.306 345.107 309.657 359.304 C 309.300 367.112, 309.006 375.637, 309.004 378.250 C 309 382.944, 309.038 383, 312.250 382.994 C 318.080 382.984, 322.945 381.114, 323.409 378.705 C 323.928 376.013, 326.032 348.575, 326.013 344.750 C 325.998 341.582, 325.501 341.527, 316.403 343.671 M 382.195 344.500 C 382.215 346.150, 382.439 346.704, 382.693 345.731 C 382.947 344.758, 382.930 343.408, 382.656 342.731 C 382.382 342.054, 382.175 342.850, 382.195 344.500 M 125.300 348 C 125.300 351.025, 125.487 352.262, 125.716 350.750 C 125.945 349.238, 125.945 346.762, 125.716 345.250 C 125.487 343.738, 125.300 344.975, 125.300 348 M 353.079 344.583 C 353.127 345.748, 353.364 345.985, 353.683 345.188 C 353.972 344.466, 353.936 343.603, 353.604 343.271 C 353.272 342.939, 353.036 343.529, 353.079 344.583 M 203.636 364.313 C 203.986 374.866, 204.716 384.063, 205.259 384.750 C 205.801 385.438, 207.822 386, 209.750 386 L 213.255 386 212.537 366.750 C 212.142 356.163, 211.522 347.221, 211.159 346.880 C 210.797 346.539, 208.812 346.005, 206.749 345.693 L 202.999 345.126 203.636 364.313 M 296.500 346.491 C 295.950 346.675, 294.262 347.098, 292.750 347.432 L 290 348.038 290 367.155 L 290 386.272 294.671 385.632 C 297.240 385.279, 299.436 384.881, 299.552 384.746 C 299.667 384.611, 300.086 375.837, 300.482 365.250 C 301.169 346.905, 301.116 346.004, 299.352 346.079 C 298.333 346.122, 297.050 346.308, 296.500 346.491 M 164.388 356.750 C 165.851 376.046, 166.041 376.972, 168.677 377.634 C 170.006 377.967, 171.247 378.074, 171.435 377.870 C 171.623 377.667, 171.176 371.650, 170.442 364.500 C 169.707 357.350, 169.082 350.712, 169.053 349.750 C 169.016 348.539, 168.187 348, 166.362 348 L 163.725 348 164.388 356.750 M 221.350 358.154 C 221.708 363.188, 222 371.738, 222 377.154 C 222 386.913, 222.022 387, 224.429 387 C 229.381 387, 230 385.074, 229.996 369.679 C 229.993 357.308, 229.740 355.086, 228.011 352.250 C 226.573 349.892, 225.298 349, 223.365 349 L 220.701 349 221.350 358.154 M 271.699 350.780 C 270.250 352.382, 270 355.004, 270 368.629 C 270 379.717, 270.367 384.967, 271.200 385.800 C 271.860 386.460, 274.090 387, 276.155 387 C 279.603 387, 279.958 386.735, 280.500 383.750 C 280.825 381.962, 280.958 373.525, 280.796 365 L 280.500 349.500 276.949 349.201 C 274.468 348.993, 272.886 349.469, 271.699 350.780 M 373.232 385 C 373.232 386.925, 373.438 387.712, 373.689 386.750 C 373.941 385.788, 373.941 384.212, 373.689 383.250 C 373.438 382.288, 373.232 383.075, 373.232 385 M 138.620 391.854 C 139.119 398.890, 140.872 406.393, 140.874 401.500 C 140.874 400.400, 140.250 396.125, 139.486 392 L 138.098 384.500 138.620 391.854 M 365.706 386.683 C 364.897 388.022, 361.832 407.165, 362.345 407.678 C 363.024 408.357, 363.706 405.685, 365.436 395.565 C 366.852 387.288, 366.932 384.657, 365.706 386.683 M 372.272 393 C 372.272 395.475, 372.467 396.488, 372.706 395.250 C 372.944 394.012, 372.944 391.988, 372.706 390.750 C 372.467 389.512, 372.272 390.525, 372.272 393 M 148.020 392.271 C 148.075 398.511, 150.957 410.401, 152.881 412.325 C 154.016 413.460, 155.201 414.132, 155.516 413.818 C 156.077 413.256, 154.389 397.031, 153.444 393.902 C 153.179 393.023, 151.845 391.795, 150.481 391.173 C 148.242 390.153, 148.002 390.260, 148.020 392.271 M 352 394 C 350.900 395.100, 350 397.282, 350 398.849 C 350 400.416, 349.709 405.141, 349.353 409.349 C 348.797 415.927, 348.928 417, 350.286 417 C 352.170 417, 352.455 416.145, 354.451 404.500 C 356.735 391.177, 356.373 389.627, 352 394 M 164.447 407.748 C 164.843 413.660, 165.615 419.036, 166.162 419.696 C 167.296 421.061, 175.823 424.510, 176.469 423.864 C 176.968 423.365, 174.522 401.151, 173.913 400.659 C 173.283 400.150, 165.045 397, 164.343 397 C 164.004 397, 164.051 401.837, 164.447 407.748 M 334.500 400.355 L 330.500 401.555 329.867 408.028 C 329.519 411.587, 329.181 416.863, 329.117 419.750 C 328.987 425.564, 329.733 426.035, 335.751 423.937 C 339.205 422.733, 339.476 421.822, 340.561 407.750 C 341.312 398.027, 341.498 398.254, 334.500 400.355 M 184.447 413.310 C 185.418 427.522, 185.516 427.793, 190.181 429.049 C 197.469 431.011, 197.520 430.930, 197.143 417.988 C 196.959 411.670, 196.718 406.404, 196.607 406.286 C 196.495 406.168, 193.557 405.407, 190.078 404.595 L 183.751 403.119 184.447 413.310 M 315 405.098 C 312.525 405.581, 309.938 406.743, 309.250 407.679 C 308.438 408.785, 308 413.046, 308 419.827 L 308 430.272 312.726 429.624 C 315.326 429.268, 317.973 428.419, 318.609 427.738 C 319.927 426.327, 321.533 403.942, 320.304 404.110 C 319.862 404.170, 317.475 404.615, 315 405.098 M 206 419.329 C 206 432.325, 206.367 433, 213.434 433 L 217 433 217 421.559 C 217 415.266, 216.587 409.863, 216.083 409.551 C 215.579 409.240, 213.104 408.702, 210.583 408.356 L 206 407.728 206 419.329 M 290.750 408.689 C 289.205 409.093, 289 410.562, 289 421.203 L 289 433.260 293.549 432.747 C 296.052 432.465, 298.239 432.069, 298.411 431.867 C 298.582 431.665, 298.994 426.212, 299.325 419.750 L 299.927 408 296.213 408.116 C 294.171 408.180, 291.712 408.438, 290.750 408.689 M 226 421.531 C 226 433.912, 226.620 435.344, 230.970 433.016 C 234.093 431.345, 235.007 427.879, 234.305 420.368 C 233.639 413.233, 231.673 410, 228 410 C 226.116 410, 226 410.667, 226 421.531 M 272.499 411.377 C 270.831 412.596, 270.443 414.236, 270.153 421.271 C 269.816 429.487, 269.878 429.759, 272.595 431.896 C 274.128 433.102, 276.309 433.956, 277.441 433.794 C 279.383 433.517, 279.500 432.847, 279.500 422 L 279.500 410.500 276.999 410.208 C 275.624 410.047, 273.599 410.573, 272.499 411.377 M 137.465 426.940 C 143.568 433.749, 164.655 444.695, 183.656 450.916 C 205.882 458.194, 225.948 461.200, 252.500 461.232 C 279.314 461.263, 299.564 458.499, 324.388 451.421 C 339.970 446.977, 362.448 436.061, 369.500 429.512 C 374.520 424.850, 374.093 424.448, 368.500 428.569 C 355.706 437.996, 324.461 448.188, 293.500 453.034 C 275.956 455.780, 243.269 456.786, 226.858 455.086 C 194.605 451.745, 158.321 440.275, 139.500 427.470 C 136.167 425.202, 135.827 425.114, 137.465 426.940" stroke="none" fill-rule="evenodd"/>
</svg>