<svg xmlns="http://www.w3.org/2000/svg" width="512" height="512" viewBox="0 0 512 512" version="1.1">
	<path d="M 221 16.531 C 221 16.687, 224.768 19.322, 229.373 22.387 C 241.902 30.724, 252.571 43.139, 258.479 56.259 C 261.518 63.007, 267.125 84, 265.888 84 C 265.368 84, 261.243 81.454, 256.722 78.341 C 238.778 65.991, 225.762 61.641, 206.500 61.557 C 194.109 61.503, 171 64.342, 171 65.919 C 171 66.277, 172.355 67.369, 174.011 68.348 C 179.976 71.871, 189.305 81.472, 191.649 86.500 C 196.115 96.079, 194.541 104.966, 185.011 123.978 C 177.963 138.038, 175.324 146.297, 173.500 160 C 171.583 174.394, 169.428 180.518, 164.451 185.713 C 160.929 189.389, 159.762 190, 156.269 190 C 152.828 190, 150.820 188.989, 143.348 183.495 C 122.225 167.966, 118.982 165.826, 109.500 161.146 C 98.290 155.615, 81.992 150.002, 68.500 147.028 C 63.550 145.936, 58.920 145.034, 58.212 145.022 C 57.504 145.010, 60.879 148.304, 65.712 152.342 C 75.878 160.836, 88.183 173.499, 92.820 180.238 C 106.248 199.755, 109.567 222.926, 102.094 244.985 C 96.639 261.088, 86.767 276.904, 73.092 291.453 C 68.916 295.896, 64.228 300.934, 62.674 302.649 L 59.848 305.768 70.674 302.984 C 101.645 295.018, 119.489 284.036, 141.327 259.500 C 154.661 244.518, 160.171 242.014, 165.771 248.392 C 169.535 252.679, 171.434 260.178, 171.368 270.500 C 171.301 281.058, 169.073 289.349, 163.037 301.500 C 157.313 313.024, 152.581 319.555, 140.366 332.786 C 135.521 338.034, 132.489 342.004, 133.563 341.694 C 134.628 341.386, 139.775 340.611, 145 339.971 C 167.746 337.189, 186.177 330.474, 199.277 320.195 C 205.323 315.451, 214.945 304.830, 218.289 299.207 C 219.367 297.396, 220.413 296.080, 220.615 296.282 C 221.417 297.083, 215.928 324.931, 213.662 331.559 C 210.573 340.595, 208.939 343.744, 202.341 353.369 L 196.946 361.237 202.723 360.519 C 213.020 359.239, 227.311 355.123, 235.550 351.066 C 253.771 342.092, 269.523 322.305, 278.062 297.664 C 281.615 287.409, 282.851 286.453, 293.550 285.686 C 298.473 285.332, 307.450 284.140, 313.500 283.037 C 319.550 281.933, 325.063 281.024, 325.750 281.015 C 327.564 280.993, 327.304 283.515, 324.582 292.336 C 323.252 296.646, 321.848 302.496, 321.462 305.336 L 320.760 310.500 327.130 304.588 C 330.634 301.337, 334.719 297.287, 336.208 295.588 L 338.916 292.500 337.458 297.409 C 336.656 300.109, 336.003 304.384, 336.007 306.909 C 336.018 313.689, 337.198 325, 337.895 324.998 C 338.228 324.997, 339.175 323.931, 340 322.630 C 340.825 321.328, 344.358 316.504, 347.851 311.909 C 358.881 297.400, 363.287 286.855, 364.832 271.271 L 365.500 264.537 374.500 257.725 C 379.450 253.977, 387.161 247.369, 391.636 243.040 C 401.823 233.185, 418.908 214.215, 421.311 210.092 C 422.932 207.311, 422.957 206.921, 421.544 206.379 C 420.546 205.995, 419.211 206.733, 417.911 208.387 C 415.605 211.318, 411.947 211.804, 409.628 209.486 C 406.257 206.114, 412.013 198.868, 422.750 192.967 C 425.087 191.683, 427 190.334, 427 189.971 C 427 188.477, 422.964 185.800, 421.537 186.347 C 418.586 187.480, 420.045 185.200, 426.099 179.221 C 432.862 172.541, 433.299 169.997, 428 168.150 C 426.149 167.505, 424.571 165.921, 423.682 163.816 C 422.912 161.992, 419.361 156.900, 415.791 152.500 C 390.784 121.684, 359.741 104.456, 323.154 101.088 C 310.957 99.966, 309.914 99.288, 307.069 90.634 C 302.042 75.344, 300.907 58.079, 303.510 36.500 C 304.307 29.900, 304.968 23.165, 304.979 21.534 L 305 18.568 299.464 24.034 C 296.419 27.040, 292.761 31.182, 291.336 33.239 L 288.744 36.977 284.906 33.023 C 280.610 28.596, 274.123 25.001, 266.174 22.643 C 259.970 20.802, 221 15.529, 221 16.531 M 259.811 34.639 C 259.603 35.663, 259.714 38.413, 260.058 40.750 C 260.752 45.471, 260.850 45.391, 256.024 44.007 L 252.561 43.014 256.315 46.108 C 260.896 49.884, 263.973 55.781, 268.381 69.234 C 270.232 74.880, 272.922 81.525, 274.361 84 C 277.930 90.142, 277.769 92.111, 273.993 88.494 C 267.711 82.475, 267.891 90.322, 274.200 97.489 C 277.760 101.535, 278.600 101.990, 282.335 101.904 C 284.626 101.851, 288.750 101.278, 291.500 100.631 C 296.415 99.473, 296.495 99.394, 296.179 95.977 C 296.003 94.065, 295.007 89.114, 293.966 84.976 C 292.925 80.838, 291.628 73.536, 291.084 68.749 C 290.540 63.963, 289.653 59.220, 289.113 58.210 C 287.787 55.733, 280.807 49.391, 273.500 44.026 C 270.200 41.603, 265.855 38.081, 263.845 36.200 C 260.655 33.215, 260.141 33.016, 259.811 34.639 M 223.545 86.073 C 223.860 86.583, 224.654 87.001, 225.309 87.003 C 225.964 87.005, 232.930 89.884, 240.788 93.401 C 255.527 99.998, 258.435 99.749, 245.056 93.036 C 237.405 89.197, 222.492 84.370, 223.545 86.073 M 216.089 100.946 C 218.172 102.222, 235.646 108.504, 239.500 109.362 C 245.895 110.787, 238.716 107.002, 229.524 104.103 C 218.691 100.686, 213.782 99.533, 216.089 100.946 M 295 115.006 C 270.701 116.872, 247.216 126.435, 221.699 144.856 C 213.282 150.933, 198.696 165.374, 182.336 183.829 C 171.431 196.131, 167.437 199.239, 159.613 201.511 C 152.849 203.476, 146.645 203.014, 138.918 199.968 L 133.988 198.024 136.563 201.915 C 142.340 210.646, 143.414 221.200, 139.648 232.250 C 138.383 235.963, 137.693 239, 138.115 239 C 138.537 239, 139.153 238.562, 139.483 238.027 C 140.341 236.639, 152.604 233, 156.424 233 C 162.937 233, 169.400 235.824, 176.384 241.720 C 201.582 262.995, 219.009 271.993, 246.589 277.969 C 256.134 280.037, 273.700 281.874, 277.299 281.181 C 278.741 280.903, 278.949 280.175, 278.446 277.171 C 278.108 275.152, 277.407 272.107, 276.889 270.404 C 275.952 267.326, 275.916 267.312, 270.960 268.095 C 260.693 269.718, 246.647 263.654, 237.143 253.494 C 232.906 248.964, 229.387 243.483, 224.047 233.090 C 216.130 217.686, 210.923 211.069, 200.592 203.282 C 194.408 198.621, 192 196.252, 192 194.829 C 192 193.774, 198.489 190.525, 203.714 188.964 C 207.669 187.782, 207.920 187.490, 207.796 184.198 C 207.700 181.650, 208.288 180.185, 209.943 178.845 C 211.196 177.830, 212.613 177, 213.092 177 C 214.535 177, 215.177 181.405, 214.133 184.149 L 213.156 186.721 223.328 187.290 C 238.484 188.137, 257.724 194.284, 270.198 202.264 C 280.360 208.764, 279.548 209.103, 279.157 198.519 C 278.590 183.140, 284.453 166.083, 296.582 147.824 C 303.786 136.980, 308.047 132.426, 319.808 123.007 C 324.267 119.437, 327.597 116.216, 327.207 115.850 C 325.978 114.693, 305.923 114.168, 295 115.006 M 293.635 118.073 C 289.024 121.700, 290.829 126.013, 296.376 124.621 C 298.876 123.993, 301.677 118.904, 300.537 117.060 C 299.499 115.380, 296.498 115.821, 293.635 118.073 M 212 118.935 C 216.675 119.354, 222.075 120.038, 224 120.454 C 226.899 121.081, 227.281 120.982, 226.224 119.880 C 225.343 118.960, 221.636 118.490, 214.224 118.360 L 203.500 118.172 212 118.935 M 307.174 121.314 C 304.381 124.287, 304.345 127.595, 307.096 128.315 C 308.250 128.617, 309.841 128.614, 310.633 128.310 C 312.643 127.539, 315.109 122.448, 314.386 120.563 C 313.503 118.262, 309.667 118.661, 307.174 121.314 M 270.762 125.053 C 268.393 126.461, 266.880 129.523, 267.611 131.428 C 268.541 133.851, 274.660 133.503, 276.028 130.948 C 278.574 126.191, 275.201 122.414, 270.762 125.053 M 288.925 135.282 C 286.290 137.320, 283.745 141.894, 284.359 143.492 C 284.696 144.372, 286.186 145, 287.933 145 C 291.470 145, 293 142.755, 293 137.566 C 293 133.815, 291.737 133.107, 288.925 135.282 M 252.636 139.072 C 248.746 142.132, 249.248 146.378, 253.551 146.799 C 257.453 147.180, 260.275 144.274, 259.825 140.338 C 259.407 136.683, 256.356 136.146, 252.636 139.072 M 233.455 146.455 C 229.563 150.346, 230.701 155, 235.545 155 C 239.869 155, 242.815 148.215, 239.800 145.200 C 237.984 143.384, 236.165 143.744, 233.455 146.455 M 361 148.121 C 355.013 150.501, 350 157.539, 350 163.564 C 350 175.342, 363.239 182.451, 374.774 176.867 C 384.531 172.144, 388.319 160.097, 382.297 152.941 C 380.810 151.174, 378.124 149.114, 376.329 148.364 C 372.571 146.794, 364.653 146.668, 361 148.121 M 267.801 150.750 C 264.915 153.835, 262 159.158, 262 161.343 C 262 163.349, 264.753 164.203, 267.126 162.933 C 270.163 161.307, 272.992 155.918, 272.996 151.750 C 273.001 147.203, 271.407 146.896, 267.801 150.750 M 360.320 156.401 C 356.550 159.644, 356.533 165.987, 360.284 169.738 C 363.095 172.549, 368.916 173.186, 372.801 171.107 C 375.812 169.495, 378.303 164.344, 377.541 161.306 C 375.750 154.172, 366.105 151.425, 360.320 156.401 M 211.972 158.052 C 210.119 161.514, 211.136 164.458, 214.310 164.822 C 217.720 165.213, 220 163.513, 220 160.578 C 220 156.034, 214.054 154.163, 211.972 158.052 M 279.580 157.912 C 277.366 160.358, 277.819 165.354, 280.298 165.824 C 283.181 166.371, 285 164.070, 285 159.878 C 285 156.775, 284.631 156, 283.155 156 C 282.140 156, 280.532 156.860, 279.580 157.912 M 319.092 164.157 C 311.921 175.110, 307.046 189.299, 307.015 199.303 C 306.943 222.513, 326.142 245.532, 349.743 250.533 C 362.467 253.230, 370.994 252.170, 377.375 247.099 L 380.990 244.226 370.745 243.745 C 358.785 243.183, 352.853 241.506, 344.102 236.215 C 317.954 220.404, 307.695 189.315, 320.488 164.657 C 321.898 161.940, 322.908 159.574, 322.733 159.399 C 322.558 159.224, 320.919 161.365, 319.092 164.157 M 250.150 166.752 C 246.544 168.038, 241.738 186, 245 186 C 248.379 186, 253 177.388, 253 171.091 C 253 166.912, 252.374 165.958, 250.150 166.752 M 227.598 168.545 C 225.607 170.535, 223.551 177.387, 224.333 179.425 C 225.190 181.660, 228.728 181.378, 230.015 178.971 C 230.612 177.856, 231.366 174.706, 231.690 171.971 C 232.175 167.873, 232.003 167, 230.711 167 C 229.848 167, 228.448 167.695, 227.598 168.545 M 266.964 179.250 C 264.805 182.748, 261.638 192.462, 262.173 193.944 C 262.353 194.441, 263.979 194.221, 265.787 193.456 C 269.732 191.787, 272 187.069, 272 180.532 C 272 174.965, 269.934 174.439, 266.964 179.250 M 223.531 206.865 C 224.064 207.362, 229 208.732, 234.500 209.910 C 255.293 214.363, 266.562 219.518, 271.551 226.860 C 274.958 231.874, 274.633 229.390, 271.167 223.924 C 269.138 220.724, 266.654 218.575, 262.417 216.350 C 253.258 211.543, 249.350 210.495, 225.531 206.465 C 223.739 206.162, 222.946 206.320, 223.531 206.865 M 238.500 224.888 C 233.807 225.462, 234.176 225.582, 244.500 226.839 C 262.343 229.012, 270 231.026, 270 233.549 C 270 235.089, 261.180 238.573, 252 240.658 C 239.413 243.518, 238.946 243.972, 249 243.576 C 259.081 243.178, 267.591 240.962, 270.911 237.868 C 272.613 236.283, 272.744 235.565, 271.820 232.913 C 269.880 227.347, 265.557 225.797, 248.750 224.638 C 245.863 224.439, 241.250 224.552, 238.500 224.888 M 285 247.046 C 283.905 247.787, 284.309 247.880, 286.500 247.390 C 290.177 246.567, 290.975 245.995, 288.417 246.015 C 287.363 246.024, 285.825 246.487, 285 247.046 M 270.500 250.692 C 256.817 253.852, 255.624 254.305, 259.777 254.767 C 264.155 255.253, 272.363 253.387, 278.500 250.510 C 284.809 247.553, 284.013 247.571, 270.500 250.692 M 188.487 284.842 C 185.179 287.404, 181.354 290.307, 179.987 291.294 C 178.619 292.280, 179.817 291.896, 182.648 290.440 C 185.480 288.984, 189.508 286.040, 191.601 283.897 C 196.454 278.927, 195.910 279.092, 188.487 284.842 M 199.824 293.368 C 196.152 296.824, 189.504 302.043, 185.050 304.967 C 180.595 307.892, 177.160 310.494, 177.416 310.749 C 178.183 311.517, 188.761 305.086, 195.101 299.997 C 201.045 295.227, 208.709 286.705, 206.750 287.043 C 206.613 287.067, 203.496 289.913, 199.824 293.368 M 240.301 298.780 C 230.219 306.073, 228.770 308.202, 237.480 302.923 C 242.015 300.175, 251.591 291.836, 249.953 292.063 C 249.704 292.097, 245.360 295.120, 240.301 298.780 M 257.685 303.499 C 253.792 308.856, 236.320 326.421, 230 331.332 C 225.148 335.102, 229.313 333.454, 236.011 328.953 C 243.144 324.160, 253.644 312.994, 258.437 305.104 C 260.515 301.682, 262.055 298.740, 261.858 298.567 C 261.661 298.393, 259.783 300.612, 257.685 303.499 M 362.352 351.441 C 357.483 353.884, 350.489 358.372, 346.808 361.415 C 340.671 366.489, 337.837 369.605, 325.666 384.650 C 317.252 395.051, 311.147 396.945, 299.119 392.883 C 289.584 389.663, 288.531 384.846, 295.642 376.975 L 299.233 373 293.051 373 C 289.650 373, 285.998 372.534, 284.934 371.965 C 282.028 370.409, 282.585 366.696, 286.493 361.577 C 288.431 359.039, 289.420 357, 288.715 357 C 286.258 357, 273.371 363.811, 260.736 371.786 C 248.874 379.274, 247.495 379.887, 241.236 380.455 C 219.189 382.455, 206.060 385.562, 192.111 392.080 C 168.821 402.964, 146.391 423.865, 135.444 444.885 C 133.549 448.523, 131.053 452.681, 129.897 454.125 C 128.199 456.247, 128.007 457.145, 128.897 458.807 C 129.502 459.939, 130.863 461.139, 131.921 461.475 C 134.058 462.153, 141 469.438, 141 471.003 C 141 471.551, 139.425 472, 137.500 472 C 132.468 472, 132.663 475.277, 137.853 477.925 C 145.447 481.799, 174.593 487.987, 185.290 487.996 C 194 488.003, 204.105 480.548, 209.042 470.474 C 212.167 464.097, 212.931 451.663, 210.671 443.954 C 208.811 437.607, 209.314 438.088, 216.410 449.447 C 222.752 459.598, 223.142 462.013, 219.645 469.500 C 216.446 476.350, 212.653 480.584, 206.612 484.049 L 201.500 486.981 208.500 486.985 C 217.681 486.989, 232.181 484.708, 244 481.398 C 257.405 477.645, 257.899 477.608, 264.543 479.846 C 274.327 483.142, 286.787 484.484, 295.765 483.208 C 303 482.180, 314.011 478.500, 313.991 477.117 C 313.986 476.778, 311.071 474.250, 307.514 471.500 C 298.388 464.445, 296.074 458.547, 299.353 450.699 C 301.584 445.358, 311.949 433.991, 318.430 429.777 C 326.071 424.808, 328.718 424.978, 342.525 431.321 C 348.038 433.854, 355.463 436.707, 359.025 437.660 C 365.866 439.493, 384.175 440.171, 385.665 438.646 C 386.124 438.177, 384.475 436.154, 382 434.152 C 371.883 425.966, 363.087 416.645, 359.852 410.680 C 356.574 404.636, 356.500 404.237, 356.523 392.500 C 356.549 378.214, 357.676 374.739, 367.562 358.436 C 371.103 352.596, 374 347.634, 374 347.409 C 374 346.180, 370.250 347.478, 362.352 351.441 M 249 413.073 C 249 415.636, 252.310 415.345, 252.812 412.739 C 253.043 411.539, 252.504 411, 251.073 411 C 249.642 411, 249 411.642, 249 413.073 M 314.473 412.044 C 313.675 413.335, 315.895 416.183, 317.113 415.430 C 317.601 415.129, 318 414.009, 318 412.941 C 318 410.891, 315.568 410.273, 314.473 412.044 M 259.412 413.369 C 258.661 415.325, 259.684 417, 261.629 417 C 262.610 417, 263.027 416.240, 262.820 414.828 C 262.432 412.191, 260.226 411.247, 259.412 413.369 M 308.211 414.538 C 307.145 415.746, 307.189 416, 308.461 416 C 309.307 416, 310 415.325, 310 414.500 C 310 412.676, 309.850 412.680, 308.211 414.538 M 269.431 415.112 C 268.569 416.507, 271.172 418.228, 272.355 417.045 C 273.316 416.084, 272.390 414, 271 414 C 270.515 414, 269.809 414.500, 269.431 415.112 M 221.169 417.151 C 221.353 418.445, 222.314 419.635, 223.331 419.829 C 224.749 420.099, 225.088 419.652, 224.831 417.849 C 224.647 416.555, 223.686 415.365, 222.669 415.171 C 221.251 414.901, 220.912 415.348, 221.169 417.151 M 301.035 416.934 C 299.607 419.604, 299.718 420, 301.893 420 C 302.934 420, 304.064 419.275, 304.404 418.389 C 304.840 417.254, 304.591 416.943, 303.562 417.338 C 302.582 417.714, 302.285 417.421, 302.658 416.449 C 303.477 414.315, 302.239 414.685, 301.035 416.934 M 278.207 417.193 C 276.320 419.080, 276.737 422, 278.893 422 C 281.313 422, 282.478 419.050, 280.744 417.315 C 279.705 416.277, 279.150 416.250, 278.207 417.193 M 308 419.122 C 308 420.889, 308.250 421.038, 309.489 420.009 C 310.994 418.760, 310.673 417, 308.941 417 C 308.423 417, 308 417.955, 308 419.122 M 285 418.878 C 285 419.360, 285.675 420.315, 286.500 421 C 287.753 422.040, 288 421.896, 288 420.122 C 288 418.902, 287.362 418, 286.500 418 C 285.675 418, 285 418.395, 285 418.878 M 292.500 419 C 292.160 419.550, 292.148 420.430, 292.473 420.956 C 293.296 422.287, 296 421.089, 296 419.393 C 296 417.794, 293.424 417.505, 292.500 419 M 232 420.893 C 232 422.792, 234.283 424.384, 235.402 423.264 C 236.837 421.830, 235.907 419, 234 419 C 232.704 419, 232 419.667, 232 420.893 M 241.336 420.567 C 240.125 423.722, 242.710 424.350, 245.657 421.617 L 248.480 419 245.208 419 C 243.161 419, 241.712 419.586, 241.336 420.567 M 251.241 423.986 C 249.567 426.666, 249.578 426.684, 253 426.781 C 255.269 426.845, 256 426.421, 256 425.040 C 256 423.621, 254.219 422, 252.659 422 C 252.561 422, 251.923 422.894, 251.241 423.986 M 260.992 424.509 C 260.048 425.647, 259.988 426.388, 260.775 427.175 C 262.292 428.692, 265.217 427.363, 264.824 425.336 C 264.375 423.020, 262.554 422.627, 260.992 424.509 M 269.250 424.662 C 268.563 424.940, 268 425.756, 268 426.476 C 268 428.485, 270.590 429.027, 272.653 427.450 C 274.259 426.222, 274.304 425.907, 273 425.034 C 271.364 423.940, 271.105 423.914, 269.250 424.662 M 299.250 425.250 C 299.479 425.938, 300.267 426.500, 301 426.500 C 301.733 426.500, 302.521 425.938, 302.750 425.250 C 302.998 424.506, 302.289 424, 301 424 C 299.711 424, 299.002 424.506, 299.250 425.250 M 244.500 426 C 244.160 426.550, 244.359 427, 244.941 427 C 245.523 427, 246 426.550, 246 426 C 246 425.450, 245.802 425, 245.559 425 C 245.316 425, 244.840 425.450, 244.500 426 M 277.644 426.627 C 278.273 426.885, 278.558 427.974, 278.277 429.048 C 277.664 431.391, 279.793 431.702, 280.677 429.399 C 281.278 427.832, 279.486 425.968, 277.500 426.094 C 276.950 426.129, 277.015 426.369, 277.644 426.627 M 294.105 427.373 C 292.857 428.877, 293.612 432, 295.224 432 C 295.779 432, 295.998 431.100, 295.710 430 C 295.423 428.900, 295.595 428, 296.094 428 C 296.592 428, 297 427.550, 297 427 C 297 425.566, 295.438 425.767, 294.105 427.373 M 213.739 428.126 C 211.730 429.251, 211.410 432.622, 213.250 433.282 C 214.995 433.907, 218 432.202, 218 430.587 C 218 428.366, 215.692 427.033, 213.739 428.126 M 285.336 429.567 C 284.502 431.739, 286.618 433.782, 288.133 432.267 C 289.413 430.987, 288.620 428, 287 428 C 286.415 428, 285.667 428.705, 285.336 429.567 M 225.655 430.829 C 223.557 433.147, 223.554 434.615, 225.645 435.417 C 228.173 436.387, 231.179 433.203, 229.933 430.874 C 228.675 428.525, 227.749 428.515, 225.655 430.829 M 234.965 433.542 C 234.071 434.620, 234.001 435.401, 234.735 436.135 C 236.097 437.497, 240 435.518, 240 433.465 C 240 431.532, 236.590 431.585, 234.965 433.542 M 243.446 433.087 C 242.501 434.616, 244.552 436.386, 246.433 435.664 C 247.295 435.333, 248 434.374, 248 433.531 C 248 431.784, 244.465 431.439, 243.446 433.087 M 252.915 435.602 C 252.027 436.672, 251.988 437.388, 252.775 438.175 C 254.156 439.556, 257 438.522, 257 436.638 C 257 434.555, 254.344 433.881, 252.915 435.602 M 165 437.194 C 155.030 439.939, 152.569 451.140, 160.980 455.490 C 165.919 458.043, 171.421 457.447, 175.434 453.924 C 185.032 445.497, 177.677 433.703, 165 437.194 M 261.404 437.389 C 260.752 439.088, 261.629 441, 263.059 441 C 264.320 441, 264.266 437.282, 262.993 436.496 C 262.439 436.153, 261.724 436.555, 261.404 437.389 M 268.607 438.582 C 267.604 441.195, 267.903 442, 269.878 442 C 272.130 442, 274.431 439.506, 273.527 438.044 C 272.540 436.447, 269.290 436.803, 268.607 438.582 M 278.667 437.667 C 277.175 439.159, 278.049 442, 280 442 C 281.467 442, 282 441.333, 282 439.500 C 282 437.147, 280.185 436.149, 278.667 437.667 M 286 439.500 C 286 440.333, 286.889 441, 288 441 C 290.384 441, 290.653 439.464, 288.418 438.607 C 286.183 437.749, 286 437.817, 286 439.500 M 237.082 442.401 C 235.806 443.939, 236.657 445, 239.167 445 C 241.328 445, 241.637 442.459, 239.573 441.666 C 238.788 441.365, 237.667 441.696, 237.082 442.401 M 252.336 442.567 C 251.502 444.739, 253.618 446.782, 255.133 445.267 C 256.413 443.987, 255.620 441, 254 441 C 253.415 441, 252.667 441.705, 252.336 442.567 M 162 444 C 160.900 445.100, 160 446.675, 160 447.500 C 160 449.839, 163.736 453, 166.500 453 C 171.374 453, 174.963 446.363, 171.800 443.200 C 169.899 441.299, 164.239 441.761, 162 444 M 243.666 443.427 C 242.816 445.642, 245.461 447.355, 246.953 445.556 C 247.624 444.748, 247.882 443.618, 247.527 443.044 C 246.595 441.535, 244.305 441.762, 243.666 443.427 M 226.278 449.122 C 224.597 450.803, 225.896 453, 228.572 453 C 230.882 453, 233.545 449.878, 232.298 448.631 C 231.270 447.603, 227.489 447.911, 226.278 449.122 M 259.710 449.623 C 258.762 450.571, 260.910 453, 262.696 453 C 264.620 453, 263.941 449.612, 261.940 449.227 C 261.094 449.064, 260.091 449.243, 259.710 449.623 M 267.624 450.538 C 266.956 452.279, 269.218 453.514, 271.483 452.645 C 273.460 451.886, 272.285 449, 270 449 C 269.018 449, 267.948 449.692, 267.624 450.538 M 236.011 453.487 C 234.413 455.412, 235.421 458, 237.769 458 C 240.586 458, 242.084 456.025, 240.918 453.847 C 239.725 451.617, 237.687 451.468, 236.011 453.487 M 244.574 453.667 C 243.548 456.341, 245.870 457.859, 247.535 455.603 C 248.306 454.559, 248.699 453.322, 248.409 452.853 C 247.523 451.420, 245.251 451.902, 244.574 453.667 M 252.110 454.367 C 250.402 456.426, 253.393 458.749, 255.500 457 C 256.325 456.315, 257 455.135, 257 454.378 C 257 452.599, 253.584 452.592, 252.110 454.367 M 286 465.966 C 286 467.188, 293.851 468.720, 297 468.113 C 299.274 467.674, 299.183 467.568, 296 466.937 C 287.482 465.248, 286 465.104, 286 465.966" stroke="none" fill="black" fill-rule="evenodd"/>
</svg>