<svg xmlns="http://www.w3.org/2000/svg" width="512" height="512" viewBox="0 0 512 512" version="1.1">
	<path d="M 239.510 19.035 C 181.373 24.202, 119.262 55.635, 83.954 97.758 C 56.658 130.323, 38.159 171.365, 31.001 215.237 C 23.347 262.154, 27.527 304.806, 44.307 351.003 C 49.221 364.534, 60.012 388.636, 62.214 390.999 C 66.067 395.135, 75 392.336, 75 386.993 C 75 385.889, 72.339 379.927, 69.086 373.743 C 57.937 352.548, 47.637 320.276, 43.475 293.500 C 39.541 268.183, 40.595 231.664, 46.040 204.718 C 52.086 174.792, 67.586 140.488, 86.633 114.881 C 126.198 61.687, 200.006 27.937, 269.141 31.424 C 329.383 34.463, 388.769 64.832, 426.705 112 C 450.395 141.455, 467.648 181.147, 475.009 223.128 C 478.139 240.979, 478.815 269.143, 476.542 287 C 472.001 322.676, 456.791 363.166, 436.456 393.712 C 431.805 400.698, 428 407.017, 428 407.754 C 428 409.845, 433.039 414, 435.573 414 C 438.622 414, 442.126 409.584, 451.363 394.103 C 470.042 362.795, 481.585 332.329, 487.028 299.969 C 489.704 284.054, 490.708 253.988, 489.107 237.670 C 483.134 176.803, 456.755 120.021, 417.231 82.958 C 399.061 65.918, 378.188 51.743, 354.749 40.522 C 325.248 26.401, 297.682 19.750, 264 18.630 C 256.025 18.365, 245.005 18.547, 239.510 19.035 M 238 57.584 C 236.625 57.816, 232.125 58.491, 228 59.083 C 209.747 61.704, 186.960 68.957, 168.500 78.022 C 128.886 97.475, 99.165 127.348, 79.505 167.472 C 68.794 189.331, 60.840 216.070, 57.542 241.301 C 55.565 256.431, 55.550 286.075, 57.512 299.883 C 63.675 343.244, 81.719 380.934, 110.843 411.283 C 144.176 446.019, 184.174 465.992, 232.500 472.034 C 243.981 473.469, 272.817 473.473, 284.500 472.041 C 355.079 463.390, 417.265 414.110, 443.550 346.002 C 448.230 333.877, 453.683 314.569, 456.235 301.088 C 459.189 285.487, 459.431 249.573, 456.701 232 C 450.557 192.454, 435.832 158.348, 412.394 129.378 C 385.331 95.927, 341.806 69.404, 298.473 59.958 C 290.115 58.136, 284.613 57.734, 264.500 57.473 C 251.300 57.302, 239.375 57.352, 238 57.584 M 238.695 73.046 C 209.399 76.109, 177.427 87.776, 152.500 104.500 C 132.662 117.809, 119.136 131.229, 106.464 150.174 C 82.915 185.380, 71 225.135, 71 268.500 C 71 302.116, 77.754 331.454, 92.178 360.500 C 105.668 387.663, 127.969 412.341, 155.279 430.326 C 201.676 460.881, 259.728 468.590, 313.458 451.330 C 353.667 438.415, 390.214 410.673, 410.788 377.451 C 421.066 360.854, 429.696 340.616, 435.449 319.620 C 440.498 301.193, 442.020 291.585, 442.677 274 C 443.926 240.574, 437.074 207.747, 422.489 177.275 C 409.574 150.292, 393.538 130.381, 369 110.859 C 347.595 93.829, 315.777 79.680, 288.230 74.942 C 274.634 72.603, 251.424 71.715, 238.695 73.046 M 242.500 100.656 C 209.054 104.633, 187.156 112.363, 161.953 129.090 C 148.513 138.010, 128.576 158.157, 119.147 172.349 C 84.668 224.243, 80.681 289.398, 108.574 345.110 C 123.032 373.985, 152.501 403.249, 181.898 417.921 C 199.213 426.563, 214.046 430.994, 234.347 433.589 C 258.323 436.655, 283.005 434.291, 305.954 426.732 C 347.499 413.046, 381.976 382.868, 401.040 343.500 C 414.444 315.821, 420.596 284.964, 418.119 257.834 C 411.300 183.140, 363.017 123.552, 294.674 105.487 C 278.624 101.244, 255.534 99.107, 242.500 100.656 M 242.500 111.603 C 210.264 114.872, 181.180 126.651, 157.439 146.049 C 132.139 166.723, 112.705 198.306, 105.066 231.161 C 100.269 251.793, 99.750 282.175, 103.886 300.171 C 119.748 369.193, 174.262 417.355, 244.049 424.005 C 260.707 425.592, 283.649 422.656, 302.500 416.525 C 314.117 412.746, 331.161 404.143, 341.482 396.849 C 352.970 388.729, 370.719 370.989, 378.761 359.589 C 390.508 342.937, 400.460 319.573, 405.210 297.500 C 408.118 283.985, 408.319 259.037, 405.637 244.500 C 393.105 176.578, 346.539 126.860, 283.500 114.095 C 273.800 112.131, 250.973 110.743, 242.500 111.603 M 251 134.670 C 246.131 135.444, 236.444 139.310, 232.358 142.109 C 223.726 148.024, 216.445 158.768, 214.061 169.112 C 212.743 174.826, 212.753 178.921, 214.105 186.682 C 215.075 192.254, 215.760 193.555, 219.719 197.349 L 224.228 201.670 224.673 260.085 C 224.946 295.945, 225.530 320.431, 226.186 323.500 C 228.657 335.069, 236.333 346.588, 245.163 351.980 C 248.098 353.773, 250.725 355.446, 251 355.699 C 251.275 355.952, 251.725 364.627, 252 374.977 C 252.443 391.657, 252.716 394.033, 254.405 395.897 C 256.919 398.672, 258.423 398.550, 260.927 395.365 C 262.853 392.917, 263 391.430, 263 374.396 L 263 356.061 268.250 352.688 C 278.649 346.005, 285.636 336.011, 288.475 323.759 C 290.320 315.798, 290.867 212.488, 289.081 209.152 C 287.015 205.292, 287.787 201.001, 291.106 197.901 C 292.814 196.306, 294.570 195, 295.008 195 C 296.423 195, 298.072 188.690, 298.675 180.960 C 299.698 167.864, 294.999 156.119, 284.873 146.460 C 275.239 137.271, 262.509 132.840, 251 134.670 M 243.222 148.047 C 232.784 153.263, 227.201 161.781, 226.047 174.250 L 225.423 181 233.461 180.986 C 237.883 180.979, 242.625 180.667, 244 180.293 L 246.500 179.613 244 179.017 C 241.896 178.515, 241.451 177.756, 241.193 174.230 C 240.782 168.612, 243.054 164.175, 249.601 157.812 C 255.636 151.946, 256.610 150.009, 255.020 147.038 C 253.507 144.210, 250.362 144.479, 243.222 148.047 M 171.597 163.049 C 167.031 167.058, 166.874 169.809, 171.250 169.118 C 171.662 169.053, 172.023 170.012, 172.051 171.250 C 172.145 175.438, 173.215 186.498, 173.562 186.870 C 173.752 187.074, 175.066 186.949, 176.483 186.594 L 179.059 185.947 178.780 173.236 C 178.458 158.636, 177.757 157.641, 171.597 163.049 M 192.500 160.945 C 187.838 162.854, 186.500 165.769, 186.500 174.024 C 186.500 180.918, 186.786 182.143, 188.924 184.419 C 194.570 190.429, 204.118 186.065, 205.501 176.841 C 207.144 165.885, 200.445 157.694, 192.500 160.945 M 330.303 161.197 C 324.532 163.985, 323.008 179.186, 327.970 184.468 C 331.170 187.874, 336.806 187.931, 340.682 184.597 C 343.226 182.409, 343.509 181.486, 343.835 174.289 C 344.170 166.911, 344.015 166.172, 341.508 163.192 C 338.637 159.780, 334.690 159.077, 330.303 161.197 M 308 163 C 306.900 164.100, 306 165.717, 306 166.594 C 306 167.931, 306.804 168.077, 311 167.500 C 315.355 166.901, 316 167.038, 316 168.560 C 316 169.521, 313.750 172.686, 311 175.594 C 307.679 179.105, 306 181.740, 306 183.440 C 306 185.973, 306.083 186, 314 186 C 321.867 186, 322 185.958, 322 183.500 C 322 181.310, 321.567 181, 318.500 181 C 316.575 181, 315 180.681, 315 180.292 C 315 179.903, 316.566 177.981, 318.479 176.021 C 323.032 171.359, 323.855 167.356, 321.006 163.734 C 319.241 161.491, 318.060 161, 314.427 161 C 311.333 161, 309.398 161.602, 308 163 M 333.370 166.807 C 330.175 168.891, 331.398 181.455, 334.733 180.813 C 335.626 180.641, 336.736 179.150, 337.201 177.500 C 338.750 172, 336.223 164.947, 333.370 166.807 M 193.667 167.667 C 193.300 168.033, 193 170.972, 193 174.198 C 193 178.718, 193.377 180.207, 194.645 180.694 C 197.973 181.971, 200.060 175.559, 198.370 169.250 C 197.799 167.121, 195.116 166.217, 193.667 167.667 M 351.207 179.683 C 351.496 187.384, 351.541 187.505, 354.250 187.816 C 356.967 188.129, 357.002 188.061, 357.167 182.066 C 357.258 178.730, 357.371 175.213, 357.417 174.250 C 357.477 172.980, 356.597 172.413, 354.207 172.183 L 350.913 171.867 351.207 179.683 M 236.908 193.750 C 236.778 194.811, 237.141 227.091, 237.872 279.500 L 238.500 324.500 241.454 329.833 C 244.198 334.787, 249.076 340, 250.968 340 C 251.416 340, 252.588 338.087, 253.573 335.750 C 256.088 329.779, 256.363 317.552, 255.497 250.250 L 254.761 193 245.880 193 C 240.996 193, 236.959 193.338, 236.908 193.750 M 171.166 199.597 C 169.737 200.597, 169.001 201.997, 169.193 203.347 C 169.511 205.579, 171.255 205.878, 175.750 204.471 C 179.679 203.241, 178.420 207.008, 173.077 212.469 C 168.280 217.371, 167.636 218.587, 167.882 222.290 C 167.987 223.882, 168.916 224.049, 176.239 223.790 C 183.380 223.539, 184.526 223.249, 184.837 221.620 C 185.295 219.225, 183.404 218.035, 179.113 218.015 L 175.726 218 180.363 213.043 C 185.703 207.334, 186.253 204.162, 182.545 200.455 C 179.658 197.567, 174.607 197.186, 171.166 199.597 M 191.750 199.080 C 188.755 200.825, 187 205.597, 187 212 C 187 215.378, 187.648 219.353, 188.453 220.909 C 191.880 227.536, 201.719 226.990, 205.248 219.975 C 208.548 213.417, 206.790 201.564, 202.150 199.080 C 199.628 197.731, 194.067 197.730, 191.750 199.080 M 326.790 200.896 C 323.773 203.592, 323.527 204.300, 323.223 211.146 C 322.956 217.154, 323.263 219.085, 324.900 221.696 C 328.742 227.821, 338.843 227.014, 341.623 220.360 C 344.537 213.386, 342.590 201.457, 338.150 199.080 C 334.519 197.137, 330.230 197.822, 326.790 200.896 M 308.906 202.743 C 303.454 208.442, 303.141 209.353, 306.820 208.813 L 309.925 208.357 310.212 216.429 L 310.500 224.500 313.500 224.500 L 316.500 224.500 316.500 212 C 316.500 200.252, 316.380 199.485, 314.500 199.243 C 313.270 199.084, 311.116 200.432, 308.906 202.743 M 370.223 204.557 C 367.461 206.491, 367.363 208.663, 370 209.500 C 371.100 209.849, 372 210.554, 372 211.067 C 372 212.887, 376.926 212.006, 378.004 209.993 C 378.884 208.349, 378.628 207.537, 376.584 205.493 C 373.659 202.568, 373.166 202.495, 370.223 204.557 M 194.035 205.934 C 191.680 210.336, 193.558 219, 196.868 219 C 199.260 219, 200 217.138, 200 211.118 C 200 204.585, 196.422 201.475, 194.035 205.934 M 330.930 205.584 C 329.237 207.624, 329.225 216.362, 330.913 218.395 C 331.886 219.568, 332.683 219.705, 334.105 218.944 C 335.629 218.128, 336 216.800, 336 212.165 C 336 204.919, 333.825 202.096, 330.930 205.584 M 350.129 209.271 C 349.483 209.917, 349 213.741, 349 218.200 C 349 224.293, 349.313 226, 350.429 226 C 353.130 226, 355 222.953, 355 218.551 C 355 216.087, 355.597 213.750, 356.395 213.087 C 357.557 212.123, 357.908 213.104, 358.496 218.965 C 359.145 225.426, 359.390 226, 361.495 226 C 364.361 226, 365 224.357, 365 216.990 C 365 213.126, 364.491 210.634, 363.500 209.643 C 361.706 207.849, 351.825 207.575, 350.129 209.271 M 214.709 209.624 C 214.319 210.014, 214 211.188, 214 212.233 C 214 213.716, 214.604 214.063, 216.750 213.816 C 218.728 213.589, 219.500 212.938, 219.500 211.500 C 219.500 209.491, 216.153 208.181, 214.709 209.624 M 269.580 225.912 C 267.002 228.760, 267.860 233.134, 271.215 234.244 C 277.564 236.346, 283.015 229.225, 277.835 225.597 C 274.789 223.463, 271.689 223.581, 269.580 225.912 M 192.942 238.472 C 188.288 241.003, 185.896 250.185, 187.926 257.724 C 189.308 262.857, 192.142 265, 197.548 265 C 202.706 265, 205.479 262.285, 206.929 255.819 C 208.689 247.965, 206.617 240.888, 201.835 238.415 C 198.449 236.664, 196.239 236.678, 192.942 238.472 M 171.223 239.557 C 169.907 240.478, 169 242.161, 169 243.682 C 169 246.331, 169.332 246.385, 175.937 244.813 C 179.083 244.064, 177.781 247.406, 173.044 252.244 C 167.829 257.569, 165.968 261.368, 167.718 263.118 C 168.252 263.652, 172.247 263.957, 176.595 263.795 C 184.282 263.508, 184.500 263.431, 184.500 261 C 184.500 258.760, 184.042 258.467, 180.105 258.185 L 175.710 257.871 180.054 253.445 C 183.690 249.740, 184.380 248.413, 184.291 245.294 C 184.110 238.898, 176.766 235.674, 171.223 239.557 M 304.750 239.977 C 303.238 241.170, 302 243.055, 302 244.166 C 302 246.017, 302.422 246.130, 307 245.500 C 311.285 244.911, 312 245.052, 312 246.488 C 312 247.410, 309.750 250.426, 307 253.191 C 303.312 256.899, 302 258.976, 302 261.109 L 302 264 310.500 264 C 318.900 264, 319 263.971, 319 261.500 C 319 259.250, 318.600 259, 315 259 C 312.800 259, 311 258.713, 311 258.362 C 311 258.011, 312.800 255.771, 315 253.384 C 319.467 248.538, 320.170 244.667, 317.240 241.048 C 314.590 237.776, 308.234 237.231, 304.750 239.977 M 326.070 240.776 C 322.583 244.263, 321.514 250.595, 323.246 257.500 C 324.297 261.690, 325.073 262.780, 328.034 264.229 C 332.790 266.556, 338.361 265.136, 340.470 261.058 C 343.974 254.283, 343.152 244.083, 338.774 240.004 C 335.490 236.945, 329.540 237.306, 326.070 240.776 M 195.200 245.200 C 193.728 246.672, 193.620 254.422, 195.035 257.066 C 196.454 259.718, 199.625 259.530, 200.370 256.750 C 202.535 248.672, 199.193 241.207, 195.200 245.200 M 330.571 245.571 C 327.488 248.655, 329.250 259, 332.859 259 C 335.823 259, 337.243 250.191, 334.965 245.934 C 333.710 243.589, 332.642 243.501, 330.571 245.571 M 269.571 250.571 C 267.519 252.624, 267.526 257.604, 269.582 258.393 C 272.464 259.499, 276.834 259.023, 278.429 257.429 C 281.817 254.040, 279.168 249, 274 249 C 272.429 249, 270.436 249.707, 269.571 250.571 M 384.159 261.601 C 377.571 266.216, 380.606 275.887, 388.668 275.968 C 393.185 276.014, 394.873 275.147, 396.537 271.928 C 398.639 267.863, 398.372 266.219, 395.077 262.923 C 391.753 259.599, 387.716 259.110, 384.159 261.601 M 115.174 263.314 C 110.965 267.795, 113.521 275.822, 119.250 276.115 C 123.902 276.353, 125.562 275.821, 127.750 273.389 C 130.679 270.134, 130.604 266.513, 127.545 263.455 C 124.223 260.132, 118.228 260.064, 115.174 263.314 M 270.223 278.557 C 268.004 280.110, 267.459 282.427, 268.607 285.418 C 269.014 286.479, 270.473 287, 273.036 287 C 277.184 287, 280 284.972, 280 281.985 C 280 279.936, 276.466 277, 274 277 C 273.145 277, 271.445 277.701, 270.223 278.557 M 174.250 283.015 C 170.592 286.343, 170.020 289, 172.961 289 C 174.738 289, 174.949 289.823, 175.211 297.750 C 175.495 306.360, 175.542 306.505, 178.119 306.804 C 180.142 307.038, 180.879 306.583, 181.356 304.804 C 182.161 301.796, 182.162 293.843, 181.358 286.147 C 180.607 278.963, 179.325 278.398, 174.250 283.015 M 193.117 281.631 C 185.899 286.686, 186.619 303.181, 194.215 306.787 C 198.194 308.676, 203.001 307.114, 205.750 303.040 C 209.887 296.907, 208.285 283.829, 203.055 281.030 C 200.213 279.508, 195.762 279.778, 193.117 281.631 M 312.489 281.210 C 309.287 282.912, 305 287.255, 305 288.795 C 305 289.806, 305.711 290.038, 307.461 289.599 C 309.920 288.982, 309.922 288.988, 310.211 297.741 L 310.500 306.500 313.500 306.500 L 316.500 306.500 316.780 294.397 C 317.082 281.294, 316.382 279.141, 312.489 281.210 M 326.822 282.868 C 323.954 285.430, 323.567 286.430, 323.198 292.239 C 322.692 300.173, 324.707 305.222, 329.103 307.043 C 332.956 308.639, 337.675 307.316, 340.201 303.933 C 342.643 300.661, 343.629 291.437, 342.049 286.647 C 339.705 279.546, 332.532 277.766, 326.822 282.868 M 196.200 287.200 C 194.448 288.952, 194.661 298.474, 196.487 299.989 C 199.435 302.436, 201 300.439, 201 294.231 C 201 289.094, 199.872 286, 198 286 C 197.670 286, 196.860 286.540, 196.200 287.200 M 330.409 288.498 C 328.525 291.374, 329.163 299.061, 331.443 300.953 C 334.919 303.837, 337.792 293.217, 334.965 287.934 C 333.581 285.348, 332.375 285.497, 330.409 288.498 M 183.267 326.966 C 180.319 329.712, 179.654 332.507, 181.188 335.698 C 185.099 343.834, 197 341.482, 197 332.573 C 197 326.122, 188.081 322.481, 183.267 326.966 M 317.635 327.073 C 312.589 331.041, 314.999 339.319, 321.568 340.586 C 325.983 341.437, 331 337.127, 331 332.484 C 331 328.515, 327.242 325, 323 325 C 321.498 325, 319.084 325.933, 317.635 327.073 M 166.750 348.523 C 163.493 350.348, 162.811 355, 165.800 355 C 166.790 355, 168.065 354.535, 168.633 353.967 C 170.061 352.539, 173 353.847, 173 355.912 C 173 356.846, 170.726 359.789, 167.948 362.452 C 164.022 366.214, 162.963 367.874, 163.198 369.897 C 163.492 372.435, 163.702 372.507, 171.628 372.788 C 178.390 373.028, 179.862 372.803, 180.381 371.448 C 181.360 368.899, 180.203 368, 175.941 368 C 173.773 368, 172 367.681, 172 367.292 C 172 366.903, 173.591 364.955, 175.535 362.964 C 179.910 358.484, 181.014 353.465, 178.344 350.196 C 175.972 347.293, 170.383 346.486, 166.750 348.523 M 187.044 349.802 C 183.818 353.029, 182.471 358.909, 183.527 365.160 C 185.678 377.890, 200.582 376.638, 202.543 363.563 C 204.442 350.895, 194.648 342.198, 187.044 349.802 M 303.381 349.528 C 299.955 352.954, 300.768 354.500, 305.994 354.500 C 308.367 354.500, 310.474 354.979, 310.676 355.564 C 310.878 356.149, 308.783 358.768, 306.021 361.382 C 302.230 364.972, 301 366.850, 301 369.049 C 301 372.570, 302.907 373.250, 311.542 372.806 C 317.149 372.518, 317.500 372.353, 317.500 370 C 317.500 367.778, 317 367.444, 313 367 L 308.500 366.500 311.554 364.321 C 313.234 363.123, 315.447 360.586, 316.472 358.683 C 318.062 355.729, 318.154 354.787, 317.100 352.241 C 314.825 346.748, 307.591 345.318, 303.381 349.528 M 326.303 348.197 C 321.394 350.568, 319.358 361.737, 322.591 368.552 C 325.936 375.600, 336.435 374.991, 339.536 367.568 C 344.653 355.321, 336.440 343.299, 326.303 348.197 M 349 361.934 C 349 373.524, 349.466 374.573, 353.349 371.734 C 354.820 370.658, 355.037 369.038, 354.791 360.984 L 354.500 351.500 351.750 351.184 L 349 350.867 349 361.934 M 329.067 354.419 C 328.389 355.236, 328.019 358.095, 328.195 361.159 C 328.440 365.436, 328.869 366.552, 330.380 366.839 C 332.936 367.325, 333.966 365.357, 333.985 359.950 C 334.005 353.987, 331.636 351.323, 329.067 354.419 M 190.709 354.624 C 189.324 356.009, 189.944 365.709, 191.500 367 C 194.319 369.339, 196.130 366.426, 195.795 360.090 C 195.544 355.341, 195.193 354.456, 193.459 354.208 C 192.336 354.047, 191.099 354.235, 190.709 354.624" stroke="none" fill-rule="evenodd"/>
</svg>